<svg viewBox="44.39999999999999 147.89999999999998 244.8 103.5" version="1.0" preserveAspectRatio="xMidYMid meet" zoomAndPan="magnify" xmlns:xlink="http://www.w3.org/1999/xlink" xmlns="http://www.w3.org/2000/svg" style="max-height: 500px" width="244.8" height="103.5"><defs><g/><clipPath id="b61161e5fa"><path clip-rule="nonzero" d="M 44.828125 172.421875 L 111.699219 172.421875 L 111.699219 230.847656 L 44.828125 230.847656 Z M 44.828125 172.421875"/></clipPath><clipPath id="6377a2ed39"><path clip-rule="nonzero" d="M 78.214844 172.421875 L 111.601562 230.847656 L 44.828125 230.847656 Z M 78.214844 172.421875"/></clipPath><clipPath id="cf57cbd0de"><path clip-rule="nonzero" d="M 62.960938 184.144531 L 93.464844 184.144531 L 93.464844 210.835938 L 62.960938 210.835938 Z M 62.960938 184.144531"/></clipPath><clipPath id="d4831257fb"><path clip-rule="nonzero" d="M 78.214844 210.835938 L 62.960938 184.144531 L 93.464844 184.144531 Z M 78.214844 210.835938"/></clipPath><linearGradient id="08041d3a91" y2="265.142553" gradientUnits="userSpaceOnUse" x2="283.428533" y1="-9.140803" gradientTransform="matrix(-0.104267, 0, 0, -0.104267, 93.467012, 210.836085)" x1="9.145196"><stop offset="0" stop-color="rgb(36.499023%, 87.799072%, 90.19928%)" stop-opacity="1"/><stop offset="0.0078125" stop-color="rgb(36.355591%, 87.640381%, 90.100098%)" stop-opacity="1"/><stop offset="0.015625" stop-color="rgb(36.070251%, 87.321472%, 89.904785%)" stop-opacity="1"/><stop offset="0.0234375" stop-color="rgb(35.784912%, 87.004089%, 89.707947%)" stop-opacity="1"/><stop offset="0.03125" stop-color="rgb(35.499573%, 86.685181%, 89.512634%)" stop-opacity="1"/><stop offset="0.0390625" stop-color="rgb(35.215759%, 86.367798%, 89.315796%)" stop-opacity="1"/><stop offset="0.046875" stop-color="rgb(34.93042%, 86.050415%, 89.120483%)" stop-opacity="1"/><stop offset="0.0546875" stop-color="rgb(34.645081%, 85.731506%, 88.923645%)" stop-opacity="1"/><stop offset="0.0625" stop-color="rgb(34.359741%, 85.414124%, 88.728333%)" stop-opacity="1"/><stop offset="0.0703125" stop-color="rgb(34.074402%, 85.095215%, 88.531494%)" stop-opacity="1"/><stop offset="0.078125" stop-color="rgb(33.789062%, 84.777832%, 88.336182%)" stop-opacity="1"/><stop offset="0.0859375" stop-color="rgb(33.503723%, 84.460449%, 88.139343%)" stop-opacity="1"/><stop offset="0.09375" stop-color="rgb(33.218384%, 84.141541%, 87.944031%)" stop-opacity="1"/><stop offset="0.101562" stop-color="rgb(32.93457%, 83.824158%, 87.747192%)" stop-opacity="1"/><stop offset="0.109375" stop-color="rgb(32.649231%, 83.506775%, 87.55188%)" stop-opacity="1"/><stop offset="0.117187" stop-color="rgb(32.363892%, 83.187866%, 87.355042%)" stop-opacity="1"/><stop offset="0.125" stop-color="rgb(32.078552%, 82.870483%, 87.159729%)" stop-opacity="1"/><stop offset="0.132812" stop-color="rgb(31.793213%, 82.551575%, 86.962891%)" stop-opacity="1"/><stop offset="0.140625" stop-color="rgb(31.507874%, 82.234192%, 86.767578%)" stop-opacity="1"/><stop offset="0.148437" stop-color="rgb(31.222534%, 81.916809%, 86.57074%)" stop-opacity="1"/><stop offset="0.15625" stop-color="rgb(30.937195%, 81.5979%, 86.375427%)" stop-opacity="1"/><stop offset="0.164062" stop-color="rgb(30.653381%, 81.280518%, 86.178589%)" stop-opacity="1"/><stop offset="0.171875" stop-color="rgb(30.368042%, 80.961609%, 85.983276%)" stop-opacity="1"/><stop offset="0.179687" stop-color="rgb(30.082703%, 80.644226%, 85.786438%)" stop-opacity="1"/><stop offset="0.1875" stop-color="rgb(29.797363%, 80.326843%, 85.591125%)" stop-opacity="1"/><stop offset="0.195312" stop-color="rgb(29.512024%, 80.007935%, 85.394287%)" stop-opacity="1"/><stop offset="0.203125" stop-color="rgb(29.226685%, 79.690552%, 85.198975%)" stop-opacity="1"/><stop offset="0.210937" stop-color="rgb(28.941345%, 79.373169%, 85.002136%)" stop-opacity="1"/><stop offset="0.21875" stop-color="rgb(28.656006%, 79.05426%, 84.806824%)" stop-opacity="1"/><stop offset="0.226562" stop-color="rgb(28.370667%, 78.736877%, 84.609985%)" stop-opacity="1"/><stop offset="0.234375" stop-color="rgb(28.086853%, 78.417969%, 84.414673%)" stop-opacity="1"/><stop offset="0.242187" stop-color="rgb(27.801514%, 78.100586%, 84.217834%)" stop-opacity="1"/><stop offset="0.25" stop-color="rgb(27.516174%, 77.783203%, 84.020996%)" stop-opacity="1"/><stop offset="0.257813" stop-color="rgb(27.230835%, 77.464294%, 83.825684%)" stop-opacity="1"/><stop offset="0.265625" stop-color="rgb(26.945496%, 77.146912%, 83.628845%)" stop-opacity="1"/><stop offset="0.273438" stop-color="rgb(26.660156%, 76.829529%, 83.433533%)" stop-opacity="1"/><stop offset="0.28125" stop-color="rgb(26.374817%, 76.51062%, 83.236694%)" stop-opacity="1"/><stop offset="0.289062" stop-color="rgb(26.089478%, 76.193237%, 83.041382%)" stop-opacity="1"/><stop offset="0.296875" stop-color="rgb(25.805664%, 75.874329%, 82.844543%)" stop-opacity="1"/><stop offset="0.304687" stop-color="rgb(25.520325%, 75.556946%, 82.649231%)" stop-opacity="1"/><stop offset="0.3125" stop-color="rgb(25.234985%, 75.239563%, 82.452393%)" stop-opacity="1"/><stop offset="0.320312" stop-color="rgb(24.949646%, 74.920654%, 82.25708%)" stop-opacity="1"/><stop offset="0.328125" stop-color="rgb(24.664307%, 74.603271%, 82.060242%)" stop-opacity="1"/><stop offset="0.335937" stop-color="rgb(24.378967%, 74.284363%, 81.864929%)" stop-opacity="1"/><stop offset="0.34375" stop-color="rgb(24.093628%, 73.96698%, 81.668091%)" stop-opacity="1"/><stop offset="0.351562" stop-color="rgb(23.808289%, 73.649597%, 81.472778%)" stop-opacity="1"/><stop offset="0.359375" stop-color="rgb(23.524475%, 73.330688%, 81.27594%)" stop-opacity="1"/><stop offset="0.367188" stop-color="rgb(23.239136%, 73.013306%, 81.080627%)" stop-opacity="1"/><stop offset="0.375" stop-color="rgb(22.953796%, 72.695923%, 80.883789%)" stop-opacity="1"/><stop offset="0.382812" stop-color="rgb(22.668457%, 72.377014%, 80.688477%)" stop-opacity="1"/><stop offset="0.390625" stop-color="rgb(22.383118%, 72.059631%, 80.491638%)" stop-opacity="1"/><stop offset="0.398437" stop-color="rgb(22.097778%, 71.740723%, 80.296326%)" stop-opacity="1"/><stop offset="0.40625" stop-color="rgb(21.812439%, 71.42334%, 80.099487%)" stop-opacity="1"/><stop offset="0.414062" stop-color="rgb(21.5271%, 71.105957%, 79.904175%)" stop-opacity="1"/><stop offset="0.421875" stop-color="rgb(21.243286%, 70.787048%, 79.707336%)" stop-opacity="1"/><stop offset="0.429688" stop-color="rgb(20.957947%, 70.469666%, 79.512024%)" stop-opacity="1"/><stop offset="0.4375" stop-color="rgb(20.672607%, 70.152283%, 79.315186%)" stop-opacity="1"/><stop offset="0.445312" stop-color="rgb(20.387268%, 69.833374%, 79.119873%)" stop-opacity="1"/><stop offset="0.453125" stop-color="rgb(20.101929%, 69.515991%, 78.923035%)" stop-opacity="1"/><stop offset="0.460937" stop-color="rgb(19.816589%, 69.197083%, 78.727722%)" stop-opacity="1"/><stop offset="0.466671" stop-color="rgb(19.53125%, 68.8797%, 78.530884%)" stop-opacity="1"/><stop offset="0.46875" stop-color="rgb(19.389343%, 68.721008%, 78.433228%)" stop-opacity="1"/><stop offset="0.476563" stop-color="rgb(19.245911%, 68.562317%, 78.335571%)" stop-opacity="1"/><stop offset="0.484375" stop-color="rgb(18.962097%, 68.243408%, 78.138733%)" stop-opacity="1"/><stop offset="0.492188" stop-color="rgb(18.676758%, 67.926025%, 77.94342%)" stop-opacity="1"/><stop offset="0.5" stop-color="rgb(18.391418%, 67.607117%, 77.746582%)" stop-opacity="1"/><stop offset="0.507813" stop-color="rgb(18.106079%, 67.289734%, 77.55127%)" stop-opacity="1"/><stop offset="0.515625" stop-color="rgb(17.82074%, 66.972351%, 77.354431%)" stop-opacity="1"/><stop offset="0.523438" stop-color="rgb(17.5354%, 66.653442%, 77.159119%)" stop-opacity="1"/><stop offset="0.53125" stop-color="rgb(17.250061%, 66.33606%, 76.96228%)" stop-opacity="1"/><stop offset="0.533329" stop-color="rgb(16.964722%, 66.018677%, 76.766968%)" stop-opacity="1"/><stop offset="0.539062" stop-color="rgb(16.822815%, 65.859985%, 76.669312%)" stop-opacity="1"/><stop offset="0.546875" stop-color="rgb(16.679382%, 65.699768%, 76.570129%)" stop-opacity="1"/><stop offset="0.554688" stop-color="rgb(16.395569%, 65.382385%, 76.374817%)" stop-opacity="1"/><stop offset="0.5625" stop-color="rgb(16.110229%, 65.063477%, 76.177979%)" stop-opacity="1"/><stop offset="0.570312" stop-color="rgb(15.82489%, 64.746094%, 75.982666%)" stop-opacity="1"/><stop offset="0.578125" stop-color="rgb(15.539551%, 64.428711%, 75.785828%)" stop-opacity="1"/><stop offset="0.585938" stop-color="rgb(15.254211%, 64.109802%, 75.590515%)" stop-opacity="1"/><stop offset="0.59375" stop-color="rgb(14.968872%, 63.792419%, 75.393677%)" stop-opacity="1"/><stop offset="0.601562" stop-color="rgb(14.683533%, 63.473511%, 75.198364%)" stop-opacity="1"/><stop offset="0.609375" stop-color="rgb(14.398193%, 63.156128%, 75.001526%)" stop-opacity="1"/><stop offset="0.617187" stop-color="rgb(14.11438%, 62.838745%, 74.804688%)" stop-opacity="1"/><stop offset="0.625" stop-color="rgb(13.829041%, 62.519836%, 74.609375%)" stop-opacity="1"/><stop offset="0.632812" stop-color="rgb(13.543701%, 62.202454%, 74.412537%)" stop-opacity="1"/><stop offset="0.640625" stop-color="rgb(13.258362%, 61.885071%, 74.217224%)" stop-opacity="1"/><stop offset="0.648437" stop-color="rgb(12.973022%, 61.566162%, 74.020386%)" stop-opacity="1"/><stop offset="0.65625" stop-color="rgb(12.687683%, 61.248779%, 73.825073%)" stop-opacity="1"/><stop offset="0.664062" stop-color="rgb(12.402344%, 60.929871%, 73.628235%)" stop-opacity="1"/><stop offset="0.671875" stop-color="rgb(12.117004%, 60.612488%, 73.432922%)" stop-opacity="1"/><stop offset="0.679687" stop-color="rgb(11.833191%, 60.295105%, 73.236084%)" stop-opacity="1"/><stop offset="0.6875" stop-color="rgb(11.547852%, 59.976196%, 73.040771%)" stop-opacity="1"/><stop offset="0.695312" stop-color="rgb(11.262512%, 59.658813%, 72.843933%)" stop-opacity="1"/><stop offset="0.703125" stop-color="rgb(10.977173%, 59.341431%, 72.648621%)" stop-opacity="1"/><stop offset="0.710938" stop-color="rgb(10.691833%, 59.022522%, 72.451782%)" stop-opacity="1"/><stop offset="0.71875" stop-color="rgb(10.406494%, 58.705139%, 72.25647%)" stop-opacity="1"/><stop offset="0.726562" stop-color="rgb(10.121155%, 58.38623%, 72.059631%)" stop-opacity="1"/><stop offset="0.734375" stop-color="rgb(9.835815%, 58.068848%, 71.864319%)" stop-opacity="1"/><stop offset="0.742188" stop-color="rgb(9.552002%, 57.751465%, 71.66748%)" stop-opacity="1"/><stop offset="0.75" stop-color="rgb(9.266663%, 57.432556%, 71.472168%)" stop-opacity="1"/><stop offset="0.757812" stop-color="rgb(8.981323%, 57.115173%, 71.27533%)" stop-opacity="1"/><stop offset="0.765625" stop-color="rgb(8.695984%, 56.796265%, 71.080017%)" stop-opacity="1"/><stop offset="0.773437" stop-color="rgb(8.410645%, 56.478882%, 70.883179%)" stop-opacity="1"/><stop offset="0.78125" stop-color="rgb(8.125305%, 56.161499%, 70.687866%)" stop-opacity="1"/><stop offset="0.789062" stop-color="rgb(7.839966%, 55.84259%, 70.491028%)" stop-opacity="1"/><stop offset="0.796875" stop-color="rgb(7.554626%, 55.525208%, 70.295715%)" stop-opacity="1"/><stop offset="0.804687" stop-color="rgb(7.269287%, 55.207825%, 70.098877%)" stop-opacity="1"/><stop offset="0.8125" stop-color="rgb(6.985474%, 54.888916%, 69.903564%)" stop-opacity="1"/><stop offset="0.820313" stop-color="rgb(6.700134%, 54.571533%, 69.706726%)" stop-opacity="1"/><stop offset="0.828125" stop-color="rgb(6.414795%, 54.252625%, 69.511414%)" stop-opacity="1"/><stop offset="0.835938" stop-color="rgb(6.129456%, 53.935242%, 69.314575%)" stop-opacity="1"/><stop offset="0.84375" stop-color="rgb(5.844116%, 53.617859%, 69.119263%)" stop-opacity="1"/><stop offset="0.851562" stop-color="rgb(5.558777%, 53.29895%, 68.922424%)" stop-opacity="1"/><stop offset="0.859375" stop-color="rgb(5.273438%, 52.981567%, 68.727112%)" stop-opacity="1"/><stop offset="0.867188" stop-color="rgb(4.988098%, 52.662659%, 68.530273%)" stop-opacity="1"/><stop offset="0.875" stop-color="rgb(4.704285%, 52.345276%, 68.334961%)" stop-opacity="1"/><stop offset="0.882812" stop-color="rgb(4.418945%, 52.027893%, 68.138123%)" stop-opacity="1"/><stop offset="0.890625" stop-color="rgb(4.133606%, 51.708984%, 67.94281%)" stop-opacity="1"/><stop offset="0.898437" stop-color="rgb(3.848267%, 51.391602%, 67.745972%)" stop-opacity="1"/><stop offset="0.90625" stop-color="rgb(3.562927%, 51.074219%, 67.550659%)" stop-opacity="1"/><stop offset="0.914062" stop-color="rgb(3.277588%, 50.75531%, 67.353821%)" stop-opacity="1"/><stop offset="0.921875" stop-color="rgb(2.992249%, 50.437927%, 67.158508%)" stop-opacity="1"/><stop offset="0.929687" stop-color="rgb(2.706909%, 50.119019%, 66.96167%)" stop-opacity="1"/><stop offset="0.9375" stop-color="rgb(2.423096%, 49.801636%, 66.766357%)" stop-opacity="1"/><stop offset="0.945313" stop-color="rgb(2.137756%, 49.484253%, 66.569519%)" stop-opacity="1"/><stop offset="0.953125" stop-color="rgb(1.852417%, 49.165344%, 66.374207%)" stop-opacity="1"/><stop offset="0.960938" stop-color="rgb(1.567078%, 48.847961%, 66.177368%)" stop-opacity="1"/><stop offset="0.96875" stop-color="rgb(1.281738%, 48.530579%, 65.982056%)" stop-opacity="1"/><stop offset="0.976562" stop-color="rgb(0.996399%, 48.21167%, 65.785217%)" stop-opacity="1"/><stop offset="0.984375" stop-color="rgb(0.71106%, 47.894287%, 65.588379%)" stop-opacity="1"/><stop offset="0.992188" stop-color="rgb(0.42572%, 47.575378%, 65.393066%)" stop-opacity="1"/><stop offset="1" stop-color="rgb(0.141907%, 47.257996%, 65.196228%)" stop-opacity="1"/></linearGradient><clipPath id="7c4c4e8b74"><path clip-rule="nonzero" d="M 215.628906 154.402344 L 225.070312 154.402344 L 225.070312 207.085938 L 215.628906 207.085938 Z M 215.628906 154.402344"/></clipPath><clipPath id="76de6ab200"><path clip-rule="nonzero" d="M 225.070312 201.878906 L 225.070312 154.402344 L 215.625 159.628906 L 215.625 207.101562 Z M 225.070312 201.878906"/></clipPath><linearGradient id="fa3b0da512" y2="128" gradientUnits="userSpaceOnUse" x2="1428.421485" y1="128" gradientTransform="matrix(0, 0.0368828, -0.0368828, 0, 225.070139, 154.403596)" x1="-0.000196121"><stop offset="0" stop-color="rgb(36.499023%, 87.799072%, 90.19928%)" stop-opacity="1"/><stop offset="0.00390625" stop-color="rgb(36.355591%, 87.568665%, 90.110779%)" stop-opacity="1"/><stop offset="0.0078125" stop-color="rgb(36.213684%, 87.339783%, 90.023804%)" stop-opacity="1"/><stop offset="0.0117188" stop-color="rgb(36.070251%, 87.109375%, 89.936829%)" stop-opacity="1"/><stop offset="0.015625" stop-color="rgb(35.928345%, 86.880493%, 89.849854%)" stop-opacity="1"/><stop offset="0.0195312" stop-color="rgb(35.786438%, 86.650085%, 89.761353%)" stop-opacity="1"/><stop offset="0.0234375" stop-color="rgb(35.644531%, 86.421204%, 89.674377%)" stop-opacity="1"/><stop offset="0.0273438" stop-color="rgb(35.501099%, 86.190796%, 89.585876%)" stop-opacity="1"/><stop offset="0.03125" stop-color="rgb(35.359192%, 85.961914%, 89.498901%)" stop-opacity="1"/><stop offset="0.0351563" stop-color="rgb(35.215759%, 85.731506%, 89.411926%)" stop-opacity="1"/><stop offset="0.0390625" stop-color="rgb(35.073853%, 85.502625%, 89.324951%)" stop-opacity="1"/><stop offset="0.0429688" stop-color="rgb(34.93042%, 85.272217%, 89.23645%)" stop-opacity="1"/><stop offset="0.046875" stop-color="rgb(34.788513%, 85.043335%, 89.149475%)" stop-opacity="1"/><stop offset="0.0507812" stop-color="rgb(34.645081%, 84.812927%, 89.060974%)" stop-opacity="1"/><stop offset="0.0546875" stop-color="rgb(34.503174%, 84.584045%, 88.973999%)" stop-opacity="1"/><stop offset="0.0585938" stop-color="rgb(34.359741%, 84.353638%, 88.885498%)" stop-opacity="1"/><stop offset="0.0625" stop-color="rgb(34.217834%, 84.124756%, 88.798523%)" stop-opacity="1"/><stop offset="0.0664063" stop-color="rgb(34.074402%, 83.894348%, 88.711548%)" stop-opacity="1"/><stop offset="0.0703125" stop-color="rgb(33.932495%, 83.665466%, 88.624573%)" stop-opacity="1"/><stop offset="0.0742188" stop-color="rgb(33.789062%, 83.435059%, 88.536072%)" stop-opacity="1"/><stop offset="0.078125" stop-color="rgb(33.647156%, 83.206177%, 88.449097%)" stop-opacity="1"/><stop offset="0.0820312" stop-color="rgb(33.503723%, 82.975769%, 88.360596%)" stop-opacity="1"/><stop offset="0.0859375" stop-color="rgb(33.361816%, 82.745361%, 88.273621%)" stop-opacity="1"/><stop offset="0.0898438" stop-color="rgb(33.21991%, 82.514954%, 88.186646%)" stop-opacity="1"/><stop offset="0.09375" stop-color="rgb(33.078003%, 82.286072%, 88.09967%)" stop-opacity="1"/><stop offset="0.0976562" stop-color="rgb(32.93457%, 82.055664%, 88.011169%)" stop-opacity="1"/><stop offset="0.101562" stop-color="rgb(32.792664%, 81.826782%, 87.924194%)" stop-opacity="1"/><stop offset="0.105469" stop-color="rgb(32.649231%, 81.596375%, 87.835693%)" stop-opacity="1"/><stop offset="0.109375" stop-color="rgb(32.507324%, 81.367493%, 87.748718%)" stop-opacity="1"/><stop offset="0.113281" stop-color="rgb(32.363892%, 81.137085%, 87.661743%)" stop-opacity="1"/><stop offset="0.117188" stop-color="rgb(32.221985%, 80.908203%, 87.574768%)" stop-opacity="1"/><stop offset="0.121094" stop-color="rgb(32.078552%, 80.677795%, 87.486267%)" stop-opacity="1"/><stop offset="0.125" stop-color="rgb(31.936646%, 80.448914%, 87.399292%)" stop-opacity="1"/><stop offset="0.128906" stop-color="rgb(31.793213%, 80.218506%, 87.310791%)" stop-opacity="1"/><stop offset="0.132813" stop-color="rgb(31.651306%, 79.989624%, 87.223816%)" stop-opacity="1"/><stop offset="0.136719" stop-color="rgb(31.507874%, 79.759216%, 87.136841%)" stop-opacity="1"/><stop offset="0.140625" stop-color="rgb(31.365967%, 79.530334%, 87.049866%)" stop-opacity="1"/><stop offset="0.144531" stop-color="rgb(31.222534%, 79.299927%, 86.961365%)" stop-opacity="1"/><stop offset="0.148438" stop-color="rgb(31.080627%, 79.071045%, 86.87439%)" stop-opacity="1"/><stop offset="0.152344" stop-color="rgb(30.938721%, 78.840637%, 86.785889%)" stop-opacity="1"/><stop offset="0.15625" stop-color="rgb(30.796814%, 78.611755%, 86.698914%)" stop-opacity="1"/><stop offset="0.160156" stop-color="rgb(30.653381%, 78.381348%, 86.611938%)" stop-opacity="1"/><stop offset="0.164062" stop-color="rgb(30.511475%, 78.152466%, 86.524963%)" stop-opacity="1"/><stop offset="0.167969" stop-color="rgb(30.368042%, 77.922058%, 86.436462%)" stop-opacity="1"/><stop offset="0.171875" stop-color="rgb(30.226135%, 77.693176%, 86.349487%)" stop-opacity="1"/><stop offset="0.175781" stop-color="rgb(30.082703%, 77.462769%, 86.260986%)" stop-opacity="1"/><stop offset="0.179688" stop-color="rgb(29.940796%, 77.233887%, 86.174011%)" stop-opacity="1"/><stop offset="0.183594" stop-color="rgb(29.797363%, 77.003479%, 86.08551%)" stop-opacity="1"/><stop offset="0.1875" stop-color="rgb(29.655457%, 76.774597%, 85.998535%)" stop-opacity="1"/><stop offset="0.191406" stop-color="rgb(29.512024%, 76.544189%, 85.91156%)" stop-opacity="1"/><stop offset="0.195312" stop-color="rgb(29.370117%, 76.315308%, 85.824585%)" stop-opacity="1"/><stop offset="0.199219" stop-color="rgb(29.226685%, 76.0849%, 85.736084%)" stop-opacity="1"/><stop offset="0.203125" stop-color="rgb(29.084778%, 75.856018%, 85.649109%)" stop-opacity="1"/><stop offset="0.207031" stop-color="rgb(28.941345%, 75.62561%, 85.560608%)" stop-opacity="1"/><stop offset="0.210937" stop-color="rgb(28.799438%, 75.396729%, 85.473633%)" stop-opacity="1"/><stop offset="0.214844" stop-color="rgb(28.657532%, 75.166321%, 85.386658%)" stop-opacity="1"/><stop offset="0.21875" stop-color="rgb(28.515625%, 74.937439%, 85.299683%)" stop-opacity="1"/><stop offset="0.222656" stop-color="rgb(28.372192%, 74.707031%, 85.211182%)" stop-opacity="1"/><stop offset="0.226563" stop-color="rgb(28.230286%, 74.476624%, 85.124207%)" stop-opacity="1"/><stop offset="0.230469" stop-color="rgb(28.086853%, 74.246216%, 85.035706%)" stop-opacity="1"/><stop offset="0.234375" stop-color="rgb(27.944946%, 74.017334%, 84.94873%)" stop-opacity="1"/><stop offset="0.238281" stop-color="rgb(27.801514%, 73.786926%, 84.861755%)" stop-opacity="1"/><stop offset="0.242188" stop-color="rgb(27.659607%, 73.558044%, 84.77478%)" stop-opacity="1"/><stop offset="0.246094" stop-color="rgb(27.516174%, 73.327637%, 84.686279%)" stop-opacity="1"/><stop offset="0.25" stop-color="rgb(27.374268%, 73.098755%, 84.599304%)" stop-opacity="1"/><stop offset="0.253906" stop-color="rgb(27.230835%, 72.868347%, 84.510803%)" stop-opacity="1"/><stop offset="0.257812" stop-color="rgb(27.088928%, 72.639465%, 84.423828%)" stop-opacity="1"/><stop offset="0.261719" stop-color="rgb(26.945496%, 72.409058%, 84.336853%)" stop-opacity="1"/><stop offset="0.265625" stop-color="rgb(26.803589%, 72.180176%, 84.249878%)" stop-opacity="1"/><stop offset="0.269531" stop-color="rgb(26.660156%, 71.949768%, 84.161377%)" stop-opacity="1"/><stop offset="0.273438" stop-color="rgb(26.51825%, 71.720886%, 84.074402%)" stop-opacity="1"/><stop offset="0.277344" stop-color="rgb(26.374817%, 71.490479%, 83.985901%)" stop-opacity="1"/><stop offset="0.28125" stop-color="rgb(26.23291%, 71.261597%, 83.898926%)" stop-opacity="1"/><stop offset="0.285156" stop-color="rgb(26.091003%, 71.031189%, 83.811951%)" stop-opacity="1"/><stop offset="0.289063" stop-color="rgb(25.949097%, 70.802307%, 83.724976%)" stop-opacity="1"/><stop offset="0.292969" stop-color="rgb(25.805664%, 70.571899%, 83.636475%)" stop-opacity="1"/><stop offset="0.296875" stop-color="rgb(25.663757%, 70.343018%, 83.5495%)" stop-opacity="1"/><stop offset="0.300781" stop-color="rgb(25.520325%, 70.11261%, 83.460999%)" stop-opacity="1"/><stop offset="0.304688" stop-color="rgb(25.378418%, 69.883728%, 83.374023%)" stop-opacity="1"/><stop offset="0.308594" stop-color="rgb(25.234985%, 69.65332%, 83.285522%)" stop-opacity="1"/><stop offset="0.3125" stop-color="rgb(25.093079%, 69.424438%, 83.198547%)" stop-opacity="1"/><stop offset="0.316406" stop-color="rgb(24.949646%, 69.194031%, 83.111572%)" stop-opacity="1"/><stop offset="0.320312" stop-color="rgb(24.807739%, 68.965149%, 83.024597%)" stop-opacity="1"/><stop offset="0.324219" stop-color="rgb(24.664307%, 68.734741%, 82.936096%)" stop-opacity="1"/><stop offset="0.328125" stop-color="rgb(24.5224%, 68.505859%, 82.849121%)" stop-opacity="1"/><stop offset="0.332031" stop-color="rgb(24.378967%, 68.275452%, 82.76062%)" stop-opacity="1"/><stop offset="0.335938" stop-color="rgb(24.237061%, 68.04657%, 82.673645%)" stop-opacity="1"/><stop offset="0.339844" stop-color="rgb(24.093628%, 67.816162%, 82.58667%)" stop-opacity="1"/><stop offset="0.34375" stop-color="rgb(23.951721%, 67.58728%, 82.499695%)" stop-opacity="1"/><stop offset="0.347656" stop-color="rgb(23.809814%, 67.356873%, 82.411194%)" stop-opacity="1"/><stop offset="0.351562" stop-color="rgb(23.667908%, 67.127991%, 82.324219%)" stop-opacity="1"/><stop offset="0.355469" stop-color="rgb(23.524475%, 66.897583%, 82.235718%)" stop-opacity="1"/><stop offset="0.359375" stop-color="rgb(23.382568%, 66.668701%, 82.148743%)" stop-opacity="1"/><stop offset="0.363281" stop-color="rgb(23.239136%, 66.438293%, 82.061768%)" stop-opacity="1"/><stop offset="0.367188" stop-color="rgb(23.097229%, 66.207886%, 81.974792%)" stop-opacity="1"/><stop offset="0.371094" stop-color="rgb(22.953796%, 65.977478%, 81.886292%)" stop-opacity="1"/><stop offset="0.375" stop-color="rgb(22.81189%, 65.748596%, 81.799316%)" stop-opacity="1"/><stop offset="0.378906" stop-color="rgb(22.668457%, 65.518188%, 81.710815%)" stop-opacity="1"/><stop offset="0.382812" stop-color="rgb(22.52655%, 65.289307%, 81.62384%)" stop-opacity="1"/><stop offset="0.386719" stop-color="rgb(22.383118%, 65.058899%, 81.536865%)" stop-opacity="1"/><stop offset="0.390625" stop-color="rgb(22.241211%, 64.830017%, 81.44989%)" stop-opacity="1"/><stop offset="0.394531" stop-color="rgb(22.097778%, 64.599609%, 81.361389%)" stop-opacity="1"/><stop offset="0.398437" stop-color="rgb(21.955872%, 64.370728%, 81.274414%)" stop-opacity="1"/><stop offset="0.402344" stop-color="rgb(21.812439%, 64.14032%, 81.185913%)" stop-opacity="1"/><stop offset="0.40625" stop-color="rgb(21.670532%, 63.911438%, 81.098938%)" stop-opacity="1"/><stop offset="0.410156" stop-color="rgb(21.528625%, 63.68103%, 81.011963%)" stop-opacity="1"/><stop offset="0.414062" stop-color="rgb(21.386719%, 63.452148%, 80.924988%)" stop-opacity="1"/><stop offset="0.417969" stop-color="rgb(21.243286%, 63.221741%, 80.836487%)" stop-opacity="1"/><stop offset="0.421875" stop-color="rgb(21.101379%, 62.992859%, 80.749512%)" stop-opacity="1"/><stop offset="0.425781" stop-color="rgb(20.957947%, 62.762451%, 80.661011%)" stop-opacity="1"/><stop offset="0.429688" stop-color="rgb(20.81604%, 62.533569%, 80.574036%)" stop-opacity="1"/><stop offset="0.433594" stop-color="rgb(20.672607%, 62.303162%, 80.485535%)" stop-opacity="1"/><stop offset="0.4375" stop-color="rgb(20.530701%, 62.07428%, 80.39856%)" stop-opacity="1"/><stop offset="0.441406" stop-color="rgb(20.387268%, 61.843872%, 80.311584%)" stop-opacity="1"/><stop offset="0.445312" stop-color="rgb(20.245361%, 61.61499%, 80.224609%)" stop-opacity="1"/><stop offset="0.449219" stop-color="rgb(20.101929%, 61.384583%, 80.136108%)" stop-opacity="1"/><stop offset="0.453125" stop-color="rgb(19.960022%, 61.155701%, 80.049133%)" stop-opacity="1"/><stop offset="0.457031" stop-color="rgb(19.816589%, 60.925293%, 79.960632%)" stop-opacity="1"/><stop offset="0.460938" stop-color="rgb(19.674683%, 60.696411%, 79.873657%)" stop-opacity="1"/><stop offset="0.464844" stop-color="rgb(19.53125%, 60.466003%, 79.786682%)" stop-opacity="1"/><stop offset="0.46875" stop-color="rgb(19.389343%, 60.237122%, 79.699707%)" stop-opacity="1"/><stop offset="0.472656" stop-color="rgb(19.245911%, 60.006714%, 79.611206%)" stop-opacity="1"/><stop offset="0.476562" stop-color="rgb(19.104004%, 59.777832%, 79.524231%)" stop-opacity="1"/><stop offset="0.480469" stop-color="rgb(18.962097%, 59.547424%, 79.43573%)" stop-opacity="1"/><stop offset="0.484375" stop-color="rgb(18.82019%, 59.318542%, 79.348755%)" stop-opacity="1"/><stop offset="0.488281" stop-color="rgb(18.676758%, 59.088135%, 79.26178%)" stop-opacity="1"/><stop offset="0.492188" stop-color="rgb(18.534851%, 58.859253%, 79.174805%)" stop-opacity="1"/><stop offset="0.496094" stop-color="rgb(18.391418%, 58.628845%, 79.086304%)" stop-opacity="1"/><stop offset="0.5" stop-color="rgb(18.249512%, 58.399963%, 78.999329%)" stop-opacity="1"/><stop offset="0.503906" stop-color="rgb(18.106079%, 58.169556%, 78.910828%)" stop-opacity="1"/><stop offset="0.507812" stop-color="rgb(17.964172%, 57.939148%, 78.823853%)" stop-opacity="1"/><stop offset="0.511719" stop-color="rgb(17.82074%, 57.70874%, 78.736877%)" stop-opacity="1"/><stop offset="0.515625" stop-color="rgb(17.678833%, 57.479858%, 78.649902%)" stop-opacity="1"/><stop offset="0.519531" stop-color="rgb(17.5354%, 57.249451%, 78.561401%)" stop-opacity="1"/><stop offset="0.523438" stop-color="rgb(17.393494%, 57.020569%, 78.474426%)" stop-opacity="1"/><stop offset="0.527344" stop-color="rgb(17.250061%, 56.790161%, 78.385925%)" stop-opacity="1"/><stop offset="0.53125" stop-color="rgb(17.108154%, 56.561279%, 78.29895%)" stop-opacity="1"/><stop offset="0.535156" stop-color="rgb(16.964722%, 56.330872%, 78.211975%)" stop-opacity="1"/><stop offset="0.539062" stop-color="rgb(16.822815%, 56.10199%, 78.125%)" stop-opacity="1"/><stop offset="0.542969" stop-color="rgb(16.680908%, 55.871582%, 78.036499%)" stop-opacity="1"/><stop offset="0.546875" stop-color="rgb(16.539001%, 55.6427%, 77.949524%)" stop-opacity="1"/><stop offset="0.550781" stop-color="rgb(16.395569%, 55.412292%, 77.861023%)" stop-opacity="1"/><stop offset="0.554688" stop-color="rgb(16.253662%, 55.183411%, 77.774048%)" stop-opacity="1"/><stop offset="0.558594" stop-color="rgb(16.110229%, 54.953003%, 77.685547%)" stop-opacity="1"/><stop offset="0.5625" stop-color="rgb(15.968323%, 54.724121%, 77.598572%)" stop-opacity="1"/><stop offset="0.566406" stop-color="rgb(15.82489%, 54.493713%, 77.511597%)" stop-opacity="1"/><stop offset="0.570312" stop-color="rgb(15.682983%, 54.264832%, 77.424622%)" stop-opacity="1"/><stop offset="0.574219" stop-color="rgb(15.539551%, 54.034424%, 77.336121%)" stop-opacity="1"/><stop offset="0.578125" stop-color="rgb(15.397644%, 53.805542%, 77.249146%)" stop-opacity="1"/><stop offset="0.582031" stop-color="rgb(15.254211%, 53.575134%, 77.160645%)" stop-opacity="1"/><stop offset="0.585938" stop-color="rgb(15.112305%, 53.346252%, 77.073669%)" stop-opacity="1"/><stop offset="0.589844" stop-color="rgb(14.968872%, 53.115845%, 76.986694%)" stop-opacity="1"/><stop offset="0.59375" stop-color="rgb(14.826965%, 52.886963%, 76.899719%)" stop-opacity="1"/><stop offset="0.597656" stop-color="rgb(14.683533%, 52.656555%, 76.811218%)" stop-opacity="1"/><stop offset="0.601562" stop-color="rgb(14.541626%, 52.427673%, 76.724243%)" stop-opacity="1"/><stop offset="0.605469" stop-color="rgb(14.399719%, 52.197266%, 76.635742%)" stop-opacity="1"/><stop offset="0.609375" stop-color="rgb(14.257812%, 51.968384%, 76.548767%)" stop-opacity="1"/><stop offset="0.613281" stop-color="rgb(14.11438%, 51.737976%, 76.461792%)" stop-opacity="1"/><stop offset="0.617188" stop-color="rgb(13.972473%, 51.509094%, 76.374817%)" stop-opacity="1"/><stop offset="0.621094" stop-color="rgb(13.829041%, 51.278687%, 76.286316%)" stop-opacity="1"/><stop offset="0.625" stop-color="rgb(13.687134%, 51.049805%, 76.199341%)" stop-opacity="1"/><stop offset="0.628906" stop-color="rgb(13.543701%, 50.819397%, 76.11084%)" stop-opacity="1"/><stop offset="0.632812" stop-color="rgb(13.401794%, 50.590515%, 76.023865%)" stop-opacity="1"/><stop offset="0.636719" stop-color="rgb(13.258362%, 50.360107%, 75.93689%)" stop-opacity="1"/><stop offset="0.640625" stop-color="rgb(13.116455%, 50.131226%, 75.849915%)" stop-opacity="1"/><stop offset="0.644531" stop-color="rgb(12.973022%, 49.900818%, 75.761414%)" stop-opacity="1"/><stop offset="0.648438" stop-color="rgb(12.831116%, 49.67041%, 75.674438%)" stop-opacity="1"/><stop offset="0.652344" stop-color="rgb(12.687683%, 49.440002%, 75.585938%)" stop-opacity="1"/><stop offset="0.65625" stop-color="rgb(12.545776%, 49.211121%, 75.498962%)" stop-opacity="1"/><stop offset="0.660156" stop-color="rgb(12.402344%, 48.980713%, 75.410461%)" stop-opacity="1"/><stop offset="0.664062" stop-color="rgb(12.260437%, 48.751831%, 75.323486%)" stop-opacity="1"/><stop offset="0.667969" stop-color="rgb(12.117004%, 48.521423%, 75.236511%)" stop-opacity="1"/><stop offset="0.671875" stop-color="rgb(11.975098%, 48.292542%, 75.149536%)" stop-opacity="1"/><stop offset="0.675781" stop-color="rgb(11.833191%, 48.062134%, 75.061035%)" stop-opacity="1"/><stop offset="0.679688" stop-color="rgb(11.691284%, 47.833252%, 74.97406%)" stop-opacity="1"/><stop offset="0.683594" stop-color="rgb(11.547852%, 47.602844%, 74.885559%)" stop-opacity="1"/><stop offset="0.6875" stop-color="rgb(11.405945%, 47.373962%, 74.798584%)" stop-opacity="1"/><stop offset="0.691406" stop-color="rgb(11.262512%, 47.143555%, 74.711609%)" stop-opacity="1"/><stop offset="0.695312" stop-color="rgb(11.120605%, 46.914673%, 74.624634%)" stop-opacity="1"/><stop offset="0.699219" stop-color="rgb(10.977173%, 46.684265%, 74.536133%)" stop-opacity="1"/><stop offset="0.703125" stop-color="rgb(10.835266%, 46.455383%, 74.449158%)" stop-opacity="1"/><stop offset="0.707031" stop-color="rgb(10.691833%, 46.224976%, 74.360657%)" stop-opacity="1"/><stop offset="0.710938" stop-color="rgb(10.549927%, 45.996094%, 74.273682%)" stop-opacity="1"/><stop offset="0.714844" stop-color="rgb(10.406494%, 45.765686%, 74.186707%)" stop-opacity="1"/><stop offset="0.71875" stop-color="rgb(10.264587%, 45.536804%, 74.099731%)" stop-opacity="1"/><stop offset="0.722656" stop-color="rgb(10.121155%, 45.306396%, 74.01123%)" stop-opacity="1"/><stop offset="0.726562" stop-color="rgb(9.979248%, 45.077515%, 73.924255%)" stop-opacity="1"/><stop offset="0.730469" stop-color="rgb(9.835815%, 44.847107%, 73.835754%)" stop-opacity="1"/><stop offset="0.734375" stop-color="rgb(9.693909%, 44.618225%, 73.748779%)" stop-opacity="1"/><stop offset="0.738281" stop-color="rgb(9.552002%, 44.387817%, 73.661804%)" stop-opacity="1"/><stop offset="0.742188" stop-color="rgb(9.410095%, 44.158936%, 73.574829%)" stop-opacity="1"/><stop offset="0.746094" stop-color="rgb(9.266663%, 43.928528%, 73.486328%)" stop-opacity="1"/><stop offset="0.75" stop-color="rgb(9.124756%, 43.699646%, 73.399353%)" stop-opacity="1"/><stop offset="0.753906" stop-color="rgb(8.981323%, 43.469238%, 73.310852%)" stop-opacity="1"/><stop offset="0.757812" stop-color="rgb(8.839417%, 43.240356%, 73.223877%)" stop-opacity="1"/><stop offset="0.761719" stop-color="rgb(8.695984%, 43.009949%, 73.136902%)" stop-opacity="1"/><stop offset="0.765625" stop-color="rgb(8.554077%, 42.781067%, 73.049927%)" stop-opacity="1"/><stop offset="0.769531" stop-color="rgb(8.410645%, 42.550659%, 72.961426%)" stop-opacity="1"/><stop offset="0.773438" stop-color="rgb(8.268738%, 42.321777%, 72.874451%)" stop-opacity="1"/><stop offset="0.777344" stop-color="rgb(8.125305%, 42.09137%, 72.78595%)" stop-opacity="1"/><stop offset="0.78125" stop-color="rgb(7.983398%, 41.862488%, 72.698975%)" stop-opacity="1"/><stop offset="0.785156" stop-color="rgb(7.839966%, 41.63208%, 72.610474%)" stop-opacity="1"/><stop offset="0.789062" stop-color="rgb(7.698059%, 41.401672%, 72.523499%)" stop-opacity="1"/><stop offset="0.792969" stop-color="rgb(7.554626%, 41.171265%, 72.436523%)" stop-opacity="1"/><stop offset="0.796875" stop-color="rgb(7.41272%, 40.942383%, 72.349548%)" stop-opacity="1"/><stop offset="0.800781" stop-color="rgb(7.270813%, 40.711975%, 72.261047%)" stop-opacity="1"/><stop offset="0.804688" stop-color="rgb(7.128906%, 40.483093%, 72.174072%)" stop-opacity="1"/><stop offset="0.808594" stop-color="rgb(6.985474%, 40.252686%, 72.085571%)" stop-opacity="1"/><stop offset="0.8125" stop-color="rgb(6.843567%, 40.023804%, 71.998596%)" stop-opacity="1"/><stop offset="0.816406" stop-color="rgb(6.700134%, 39.793396%, 71.911621%)" stop-opacity="1"/><stop offset="0.820312" stop-color="rgb(6.558228%, 39.564514%, 71.824646%)" stop-opacity="1"/><stop offset="0.824219" stop-color="rgb(6.414795%, 39.334106%, 71.736145%)" stop-opacity="1"/><stop offset="0.828125" stop-color="rgb(6.272888%, 39.105225%, 71.64917%)" stop-opacity="1"/><stop offset="0.832031" stop-color="rgb(6.129456%, 38.874817%, 71.560669%)" stop-opacity="1"/><stop offset="0.835937" stop-color="rgb(5.987549%, 38.645935%, 71.473694%)" stop-opacity="1"/><stop offset="0.839844" stop-color="rgb(5.844116%, 38.415527%, 71.386719%)" stop-opacity="1"/><stop offset="0.84375" stop-color="rgb(5.702209%, 38.186646%, 71.299744%)" stop-opacity="1"/><stop offset="0.847656" stop-color="rgb(5.558777%, 37.956238%, 71.211243%)" stop-opacity="1"/><stop offset="0.851562" stop-color="rgb(5.41687%, 37.727356%, 71.124268%)" stop-opacity="1"/><stop offset="0.855469" stop-color="rgb(5.273438%, 37.496948%, 71.035767%)" stop-opacity="1"/><stop offset="0.859375" stop-color="rgb(5.131531%, 37.268066%, 70.948792%)" stop-opacity="1"/><stop offset="0.863281" stop-color="rgb(4.988098%, 37.037659%, 70.861816%)" stop-opacity="1"/><stop offset="0.867187" stop-color="rgb(4.846191%, 36.808777%, 70.774841%)" stop-opacity="1"/><stop offset="0.871094" stop-color="rgb(4.704285%, 36.578369%, 70.68634%)" stop-opacity="1"/><stop offset="0.875" stop-color="rgb(4.562378%, 36.349487%, 70.599365%)" stop-opacity="1"/><stop offset="0.878906" stop-color="rgb(4.418945%, 36.11908%, 70.510864%)" stop-opacity="1"/><stop offset="0.882812" stop-color="rgb(4.277039%, 35.890198%, 70.423889%)" stop-opacity="1"/><stop offset="0.886719" stop-color="rgb(4.133606%, 35.65979%, 70.336914%)" stop-opacity="1"/><stop offset="0.890625" stop-color="rgb(3.991699%, 35.430908%, 70.249939%)" stop-opacity="1"/><stop offset="0.894531" stop-color="rgb(3.848267%, 35.2005%, 70.161438%)" stop-opacity="1"/><stop offset="0.898438" stop-color="rgb(3.70636%, 34.971619%, 70.074463%)" stop-opacity="1"/><stop offset="0.902344" stop-color="rgb(3.562927%, 34.741211%, 69.985962%)" stop-opacity="1"/><stop offset="0.90625" stop-color="rgb(3.421021%, 34.512329%, 69.898987%)" stop-opacity="1"/><stop offset="0.910156" stop-color="rgb(3.277588%, 34.281921%, 69.810486%)" stop-opacity="1"/><stop offset="0.914062" stop-color="rgb(3.135681%, 34.05304%, 69.723511%)" stop-opacity="1"/><stop offset="0.917969" stop-color="rgb(2.992249%, 33.822632%, 69.636536%)" stop-opacity="1"/><stop offset="0.921875" stop-color="rgb(2.850342%, 33.59375%, 69.549561%)" stop-opacity="1"/><stop offset="0.925781" stop-color="rgb(2.706909%, 33.363342%, 69.46106%)" stop-opacity="1"/><stop offset="0.929688" stop-color="rgb(2.565002%, 33.132935%, 69.374084%)" stop-opacity="1"/><stop offset="0.933594" stop-color="rgb(2.423096%, 32.902527%, 69.285583%)" stop-opacity="1"/><stop offset="0.9375" stop-color="rgb(2.281189%, 32.673645%, 69.198608%)" stop-opacity="1"/><stop offset="0.941406" stop-color="rgb(2.137756%, 32.443237%, 69.111633%)" stop-opacity="1"/><stop offset="0.945312" stop-color="rgb(1.99585%, 32.214355%, 69.024658%)" stop-opacity="1"/><stop offset="0.949219" stop-color="rgb(1.852417%, 31.983948%, 68.936157%)" stop-opacity="1"/><stop offset="0.953125" stop-color="rgb(1.71051%, 31.755066%, 68.849182%)" stop-opacity="1"/><stop offset="0.957031" stop-color="rgb(1.567078%, 31.524658%, 68.760681%)" stop-opacity="1"/><stop offset="0.960938" stop-color="rgb(1.425171%, 31.295776%, 68.673706%)" stop-opacity="1"/><stop offset="0.964844" stop-color="rgb(1.281738%, 31.065369%, 68.586731%)" stop-opacity="1"/><stop offset="0.96875" stop-color="rgb(1.139832%, 30.836487%, 68.499756%)" stop-opacity="1"/><stop offset="0.972656" stop-color="rgb(0.996399%, 30.606079%, 68.411255%)" stop-opacity="1"/><stop offset="0.976562" stop-color="rgb(0.854492%, 30.377197%, 68.32428%)" stop-opacity="1"/><stop offset="0.980469" stop-color="rgb(0.71106%, 30.14679%, 68.235779%)" stop-opacity="1"/><stop offset="0.984375" stop-color="rgb(0.569153%, 29.917908%, 68.148804%)" stop-opacity="1"/><stop offset="0.988281" stop-color="rgb(0.42572%, 29.6875%, 68.061829%)" stop-opacity="1"/><stop offset="0.992188" stop-color="rgb(0.283813%, 29.458618%, 67.974854%)" stop-opacity="1"/><stop offset="0.996094" stop-color="rgb(0.141907%, 29.22821%, 67.886353%)" stop-opacity="1"/><stop offset="1" stop-color="rgb(0%, 28.999329%, 67.799377%)" stop-opacity="1"/></linearGradient></defs><rect fill-opacity="1" height="449.999989" y="-37.499999" fill="#ffffff" width="450" x="-37.5"/><rect fill-opacity="1" height="449.999989" y="-37.499999" fill="#ffffff" width="450" x="-37.5"/><g fill-opacity="1" fill="#003b73"><g transform="translate(107.374281, 210.286011)"><g><path d="M 40.410156 0 L 27.101562 -20.527344 L 17.609375 -20.527344 L 17.609375 0 L 8.113281 0 L 8.113281 -59.070312 L 24.75 -59.070312 C 31.347656 -59.070312 36.636719 -57.394531 40.613281 -54.039062 C 44.585938 -50.6875 46.574219 -46.035156 46.574219 -40.085938 C 46.574219 -36.460938 45.804688 -33.09375 44.261719 -29.980469 C 42.722656 -26.871094 40.300781 -24.476562 37 -22.800781 L 51.363281 0 Z M 17.609375 -29.617188 L 26.046875 -29.617188 C 29.832031 -29.617188 32.578125 -30.660156 34.28125 -32.742188 C 35.988281 -34.824219 36.839844 -37.164062 36.839844 -39.761719 C 36.839844 -41.273438 36.515625 -42.800781 35.863281 -44.34375 C 35.214844 -45.886719 34.105469 -47.210938 32.539062 -48.320312 C 30.96875 -49.429688 28.914062 -49.984375 26.371094 -49.984375 L 17.609375 -49.984375 Z M 17.609375 -29.617188"/></g></g></g><g fill-opacity="1" fill="#003b73"><g transform="translate(159.060546, 210.286011)"><g><path d="M 36.109375 -30.835938 C 39.410156 -29.480469 41.992188 -27.617188 43.859375 -25.234375 C 45.722656 -22.855469 46.65625 -20.097656 46.65625 -16.957031 C 46.65625 -11.226562 44.722656 -6.964844 40.855469 -4.179688 C 36.988281 -1.394531 32.214844 0 26.535156 0 L 8.113281 0 L 8.113281 -59.070312 L 24.261719 -59.070312 C 30.429688 -59.070312 35.214844 -57.8125 38.625 -55.296875 C 42.03125 -52.78125 43.734375 -49.089844 43.734375 -44.222656 C 43.734375 -41.140625 43.074219 -38.476562 41.746094 -36.230469 C 40.421875 -33.984375 38.542969 -32.1875 36.109375 -30.835938 Z M 17.609375 -33.917969 L 25.804688 -33.917969 C 28.507812 -33.917969 30.550781 -34.703125 31.929688 -36.269531 C 33.308594 -37.839844 34 -39.8125 34 -42.195312 C 34 -44.789062 33.171875 -46.738281 31.523438 -48.035156 C 29.875 -49.335938 27.589844 -49.984375 24.667969 -49.984375 L 17.609375 -49.984375 Z M 26.128906 -8.761719 C 29.320312 -8.761719 31.917969 -9.453125 33.917969 -10.832031 C 35.917969 -12.210938 36.917969 -14.226562 36.917969 -16.878906 C 36.917969 -19.691406 35.824219 -21.71875 33.632812 -22.964844 C 31.441406 -24.207031 28.722656 -24.828125 25.480469 -24.828125 L 17.609375 -24.828125 L 17.609375 -8.761719 Z M 26.128906 -8.761719"/></g></g></g><g fill-opacity="1" fill="#003b73"><g transform="translate(207.501186, 210.286011)"><g><path d="M 8.113281 -59.070312 L 17.609375 -59.070312 L 17.609375 0 L 8.113281 0 Z M 8.113281 -59.070312"/></g></g></g><g fill-opacity="1" fill="#003b73"><g transform="translate(230.544825, 210.286011)"><g><path d="M 39.109375 -47.0625 C 34.027344 -49.714844 29.507812 -51.039062 25.558594 -51.039062 C 22.640625 -51.039062 20.328125 -50.390625 18.621094 -49.089844 C 16.917969 -47.792969 16.066406 -46.007812 16.066406 -43.734375 C 16.066406 -41.519531 17.132812 -39.664062 19.269531 -38.175781 C 21.40625 -36.691406 24.398438 -35.214844 28.238281 -33.753906 C 31.160156 -32.726562 33.660156 -31.550781 35.742188 -30.226562 C 37.824219 -28.898438 39.542969 -27.101562 40.894531 -24.828125 C 42.25 -22.558594 42.925781 -19.691406 42.925781 -16.226562 C 42.925781 -13.089844 42.140625 -10.25 40.570312 -7.707031 C 39.003906 -5.167969 36.730469 -3.136719 33.753906 -1.621094 C 30.78125 -0.109375 27.265625 0.648438 23.207031 0.648438 C 19.636719 0.648438 16.121094 0.09375 12.660156 -1.015625 C 9.195312 -2.125 6.113281 -3.652344 3.40625 -5.597656 L 7.628906 -12.984375 C 9.628906 -11.46875 11.996094 -10.210938 14.726562 -9.210938 C 17.460938 -8.207031 19.988281 -7.707031 22.3125 -7.707031 C 25.179688 -7.707031 27.695312 -8.398438 29.859375 -9.777344 C 32.023438 -11.15625 33.105469 -13.28125 33.105469 -16.148438 C 33.105469 -18.417969 32.199219 -20.3125 30.386719 -21.828125 C 28.574219 -23.34375 26.046875 -24.722656 22.800781 -25.964844 C 19.445312 -27.210938 16.660156 -28.441406 14.445312 -29.65625 C 12.226562 -30.875 10.320312 -32.578125 8.722656 -34.769531 C 7.128906 -36.960938 6.328125 -39.707031 6.328125 -43.003906 C 6.328125 -47.820312 7.964844 -51.703125 11.238281 -54.648438 C 14.511719 -57.597656 18.824219 -59.179688 24.179688 -59.394531 C 28.074219 -59.394531 31.496094 -58.949219 34.445312 -58.058594 C 37.394531 -57.164062 40.136719 -55.90625 42.679688 -54.285156 Z M 39.109375 -47.0625"/></g></g></g><g fill-opacity="1" fill="#003b73"><g transform="translate(43.51528, 210.734174)"><g><path d="M 4.460938 -29.453125 C 4.460938 -34.863281 5.816406 -39.882812 8.519531 -44.507812 C 11.226562 -49.132812 14.890625 -52.824219 19.515625 -55.582031 C 24.140625 -58.339844 29.183594 -59.722656 34.648438 -59.722656 C 40.058594 -59.722656 45.074219 -58.339844 49.699219 -55.582031 C 54.324219 -52.824219 58.015625 -49.117188 60.777344 -44.464844 C 63.535156 -39.8125 64.914062 -34.808594 64.914062 -29.453125 C 64.914062 -23.992188 63.546875 -18.960938 60.816406 -14.363281 C 58.085938 -9.765625 54.390625 -6.113281 49.742188 -3.40625 C 45.089844 -0.703125 40.058594 0.648438 34.648438 0.648438 C 29.183594 0.648438 24.140625 -0.691406 19.515625 -3.367188 C 14.890625 -6.046875 11.226562 -9.683594 8.519531 -14.28125 C 5.816406 -18.878906 4.460938 -23.9375 4.460938 -29.453125 Z M 14.199219 -29.453125 C 14.199219 -25.613281 15.121094 -22.097656 16.957031 -18.90625 C 18.796875 -15.714844 21.300781 -13.171875 24.464844 -11.277344 C 27.628906 -9.386719 31.105469 -8.4375 34.890625 -8.4375 C 38.625 -8.4375 42.03125 -9.371094 45.113281 -11.238281 C 48.199219 -13.105469 50.644531 -15.648438 52.457031 -18.867188 C 54.269531 -22.085938 55.175781 -25.613281 55.175781 -29.453125 C 55.175781 -33.296875 54.257812 -36.839844 52.417969 -40.085938 C 50.578125 -43.328125 48.089844 -45.898438 44.953125 -47.792969 C 41.816406 -49.6875 38.378906 -50.632812 34.648438 -50.632812 C 30.859375 -50.632812 27.414062 -49.6875 24.300781 -47.792969 C 21.191406 -45.898438 18.730469 -43.328125 16.917969 -40.085938 C 15.105469 -36.839844 14.199219 -33.296875 14.199219 -29.453125 Z M 14.199219 -29.453125"/></g></g></g><g clip-path="url(#b61161e5fa)"><g clip-path="url(#6377a2ed39)"><path fill-rule="nonzero" fill-opacity="1" d="M 44.828125 172.421875 L 111.699219 172.421875 L 111.699219 230.847656 L 44.828125 230.847656 Z M 44.828125 172.421875" fill="#ffffff"/></g></g><g clip-path="url(#cf57cbd0de)"><g clip-path="url(#d4831257fb)"><path fill-rule="nonzero" d="M 93.464844 210.835938 L 93.464844 184.144531 L 62.960938 184.144531 L 62.960938 210.835938 Z M 93.464844 210.835938" fill="url(#08041d3a91)"/></g></g><g clip-path="url(#7c4c4e8b74)"><g clip-path="url(#76de6ab200)"><path fill-rule="nonzero" d="M 225.070312 154.402344 L 215.628906 154.402344 L 215.628906 207.085938 L 225.070312 207.085938 Z M 225.070312 154.402344" fill="url(#fa3b0da512)"/></g></g><g fill-opacity="1" fill="#00488a"><g transform="translate(115.490841, 226.54169)"><g><path d="M 8.085938 -7.488281 L 4.84375 0 L 3.132812 0 L -0.0976562 -7.488281 L 1.773438 -7.488281 L 4.054688 -2.140625 L 6.363281 -7.488281 Z M 8.085938 -7.488281"/></g></g></g><g fill-opacity="1" fill="#00488a"><g transform="translate(125.624401, 226.54169)"><g><path d="M 5.816406 -1.605469 L 2.34375 -1.605469 L 1.679688 0 L -0.0976562 0 L 3.242188 -7.488281 L 4.953125 -7.488281 L 8.300781 0 L 6.480469 0 Z M 5.273438 -2.917969 L 4.085938 -5.785156 L 2.898438 -2.917969 Z M 5.273438 -2.917969"/></g></g></g><g fill-opacity="1" fill="#00488a"><g transform="translate(135.971713, 226.54169)"><g><path d="M 0.886719 -7.488281 L 2.621094 -7.488281 L 2.621094 -1.410156 L 6.375 -1.410156 L 6.375 0 L 0.886719 0 Z M 0.886719 -7.488281"/></g></g></g><g fill-opacity="1" fill="#00488a"><g transform="translate(144.587649, 226.54169)"><g><path d="M 8.085938 -7.488281 L 4.84375 0 L 3.132812 0 L -0.0976562 -7.488281 L 1.773438 -7.488281 L 4.054688 -2.140625 L 6.363281 -7.488281 Z M 8.085938 -7.488281"/></g></g></g><g fill-opacity="1" fill="#00488a"><g transform="translate(154.721208, 226.54169)"><g><path d="M 6.683594 -1.390625 L 6.683594 0 L 0.886719 0 L 0.886719 -7.488281 L 6.546875 -7.488281 L 6.546875 -6.097656 L 2.609375 -6.097656 L 2.609375 -4.46875 L 6.085938 -4.46875 L 6.085938 -3.121094 L 2.609375 -3.121094 L 2.609375 -1.390625 Z M 6.683594 -1.390625"/></g></g></g><g fill-opacity="1" fill="#00488a"><g transform="translate(164.053212, 226.54169)"><g><path d="M 3.347656 0.128906 C 2.753906 0.128906 2.183594 0.046875 1.632812 -0.113281 C 1.078125 -0.273438 0.632812 -0.480469 0.300781 -0.738281 L 0.886719 -2.042969 C 1.207031 -1.808594 1.589844 -1.617188 2.03125 -1.476562 C 2.472656 -1.332031 2.917969 -1.261719 3.359375 -1.261719 C 3.851562 -1.261719 4.214844 -1.335938 4.449219 -1.480469 C 4.683594 -1.628906 4.800781 -1.820312 4.800781 -2.0625 C 4.800781 -2.242188 4.734375 -2.390625 4.59375 -2.507812 C 4.453125 -2.625 4.277344 -2.71875 4.058594 -2.792969 C 3.839844 -2.863281 3.546875 -2.941406 3.175781 -3.027344 C 2.605469 -3.164062 2.140625 -3.296875 1.773438 -3.433594 C 1.410156 -3.570312 1.101562 -3.785156 0.839844 -4.085938 C 0.578125 -4.386719 0.449219 -4.785156 0.449219 -5.285156 C 0.449219 -5.71875 0.566406 -6.113281 0.800781 -6.464844 C 1.039062 -6.816406 1.390625 -7.097656 1.867188 -7.304688 C 2.339844 -7.511719 2.917969 -7.613281 3.605469 -7.613281 C 4.082031 -7.613281 4.550781 -7.558594 5.003906 -7.445312 C 5.460938 -7.328125 5.859375 -7.164062 6.203125 -6.953125 L 5.667969 -5.636719 C 4.976562 -6.027344 4.285156 -6.222656 3.59375 -6.222656 C 3.109375 -6.222656 2.75 -6.144531 2.519531 -5.988281 C 2.285156 -5.832031 2.171875 -5.625 2.171875 -5.367188 C 2.171875 -5.113281 2.304688 -4.921875 2.570312 -4.796875 C 2.839844 -4.671875 3.246094 -4.550781 3.796875 -4.425781 C 4.367188 -4.292969 4.835938 -4.15625 5.199219 -4.019531 C 5.5625 -3.886719 5.875 -3.671875 6.132812 -3.378906 C 6.394531 -3.085938 6.523438 -2.691406 6.523438 -2.191406 C 6.523438 -1.765625 6.40625 -1.375 6.164062 -1.019531 C 5.925781 -0.667969 5.570312 -0.386719 5.089844 -0.183594 C 4.613281 0.0234375 4.03125 0.128906 3.347656 0.128906 Z M 3.347656 0.128906"/></g></g></g><g fill-opacity="1" fill="#00488a"><g transform="translate(173.032521, 226.54169)"><g/></g></g><g fill-opacity="1" fill="#00488a"><g transform="translate(178.217758, 226.54169)"><g><path d="M 0.886719 -7.488281 L 2.621094 -7.488281 L 2.621094 0 L 0.886719 0 Z M 0.886719 -7.488281"/></g></g></g><g fill-opacity="1" fill="#00488a"><g transform="translate(183.883934, 226.54169)"><g><path d="M 7.753906 -7.488281 L 7.753906 0 L 6.332031 0 L 2.597656 -4.546875 L 2.597656 0 L 0.886719 0 L 0.886719 -7.488281 L 2.320312 -7.488281 L 6.042969 -2.941406 L 6.042969 -7.488281 Z M 7.753906 -7.488281"/></g></g></g><g fill-opacity="1" fill="#00488a"><g transform="translate(194.680129, 226.54169)"><g><path d="M 0.886719 -7.488281 L 4.289062 -7.488281 C 5.101562 -7.488281 5.820312 -7.332031 6.445312 -7.019531 C 7.066406 -6.710938 7.550781 -6.273438 7.898438 -5.710938 C 8.242188 -5.148438 8.417969 -4.492188 8.417969 -3.742188 C 8.417969 -2.996094 8.242188 -2.339844 7.898438 -1.773438 C 7.550781 -1.210938 7.066406 -0.773438 6.445312 -0.464844 C 5.820312 -0.15625 5.101562 0 4.289062 0 L 0.886719 0 Z M 4.203125 -1.421875 C 4.953125 -1.421875 5.550781 -1.632812 5.996094 -2.046875 C 6.441406 -2.464844 6.664062 -3.03125 6.664062 -3.742188 C 6.664062 -4.457031 6.441406 -5.019531 5.996094 -5.4375 C 5.550781 -5.855469 4.953125 -6.0625 4.203125 -6.0625 L 2.621094 -6.0625 L 2.621094 -1.421875 Z M 4.203125 -1.421875"/></g></g></g><g fill-opacity="1" fill="#00488a"><g transform="translate(205.668699, 226.54169)"><g><path d="M 4.214844 0.128906 C 3.144531 0.128906 2.3125 -0.167969 1.714844 -0.757812 C 1.121094 -1.351562 0.824219 -2.195312 0.824219 -3.292969 L 0.824219 -7.488281 L 2.554688 -7.488281 L 2.554688 -3.359375 C 2.554688 -2.019531 3.113281 -1.347656 4.222656 -1.347656 C 4.765625 -1.347656 5.179688 -1.511719 5.464844 -1.835938 C 5.75 -2.160156 5.894531 -2.667969 5.894531 -3.359375 L 5.894531 -7.488281 L 7.605469 -7.488281 L 7.605469 -3.292969 C 7.605469 -2.195312 7.304688 -1.351562 6.710938 -0.757812 C 6.117188 -0.167969 5.285156 0.128906 4.214844 0.128906 Z M 4.214844 0.128906"/></g></g></g><g fill-opacity="1" fill="#00488a"><g transform="translate(216.251142, 226.54169)"><g><path d="M 3.347656 0.128906 C 2.753906 0.128906 2.183594 0.046875 1.632812 -0.113281 C 1.078125 -0.273438 0.632812 -0.480469 0.300781 -0.738281 L 0.886719 -2.042969 C 1.207031 -1.808594 1.589844 -1.617188 2.03125 -1.476562 C 2.472656 -1.332031 2.917969 -1.261719 3.359375 -1.261719 C 3.851562 -1.261719 4.214844 -1.335938 4.449219 -1.480469 C 4.683594 -1.628906 4.800781 -1.820312 4.800781 -2.0625 C 4.800781 -2.242188 4.734375 -2.390625 4.59375 -2.507812 C 4.453125 -2.625 4.277344 -2.71875 4.058594 -2.792969 C 3.839844 -2.863281 3.546875 -2.941406 3.175781 -3.027344 C 2.605469 -3.164062 2.140625 -3.296875 1.773438 -3.433594 C 1.410156 -3.570312 1.101562 -3.785156 0.839844 -4.085938 C 0.578125 -4.386719 0.449219 -4.785156 0.449219 -5.285156 C 0.449219 -5.71875 0.566406 -6.113281 0.800781 -6.464844 C 1.039062 -6.816406 1.390625 -7.097656 1.867188 -7.304688 C 2.339844 -7.511719 2.917969 -7.613281 3.605469 -7.613281 C 4.082031 -7.613281 4.550781 -7.558594 5.003906 -7.445312 C 5.460938 -7.328125 5.859375 -7.164062 6.203125 -6.953125 L 5.667969 -5.636719 C 4.976562 -6.027344 4.285156 -6.222656 3.59375 -6.222656 C 3.109375 -6.222656 2.75 -6.144531 2.519531 -5.988281 C 2.285156 -5.832031 2.171875 -5.625 2.171875 -5.367188 C 2.171875 -5.113281 2.304688 -4.921875 2.570312 -4.796875 C 2.839844 -4.671875 3.246094 -4.550781 3.796875 -4.425781 C 4.367188 -4.292969 4.835938 -4.15625 5.199219 -4.019531 C 5.5625 -3.886719 5.875 -3.671875 6.132812 -3.378906 C 6.394531 -3.085938 6.523438 -2.691406 6.523438 -2.191406 C 6.523438 -1.765625 6.40625 -1.375 6.164062 -1.019531 C 5.925781 -0.667969 5.570312 -0.386719 5.089844 -0.183594 C 4.613281 0.0234375 4.03125 0.128906 3.347656 0.128906 Z M 3.347656 0.128906"/></g></g></g><g fill-opacity="1" fill="#00488a"><g transform="translate(225.23045, 226.54169)"><g><path d="M 2.4375 -6.074219 L 0.0429688 -6.074219 L 0.0429688 -7.488281 L 6.566406 -7.488281 L 6.566406 -6.074219 L 4.171875 -6.074219 L 4.171875 0 L 2.4375 0 Z M 2.4375 -6.074219"/></g></g></g><g fill-opacity="1" fill="#00488a"><g transform="translate(233.996006, 226.54169)"><g><path d="M 5.65625 0 L 4.214844 -2.085938 L 2.621094 -2.085938 L 2.621094 0 L 0.886719 0 L 0.886719 -7.488281 L 4.128906 -7.488281 C 4.792969 -7.488281 5.367188 -7.375 5.855469 -7.15625 C 6.34375 -6.933594 6.71875 -6.621094 6.984375 -6.214844 C 7.246094 -5.808594 7.378906 -5.324219 7.378906 -4.769531 C 7.378906 -4.214844 7.246094 -3.734375 6.976562 -3.332031 C 6.710938 -2.929688 6.332031 -2.621094 5.839844 -2.40625 L 7.519531 0 Z M 5.625 -4.769531 C 5.625 -5.191406 5.488281 -5.511719 5.21875 -5.738281 C 4.949219 -5.960938 4.550781 -6.074219 4.03125 -6.074219 L 2.621094 -6.074219 L 2.621094 -3.464844 L 4.03125 -3.464844 C 4.550781 -3.464844 4.949219 -3.578125 5.21875 -3.808594 C 5.488281 -4.035156 5.625 -4.355469 5.625 -4.769531 Z M 5.625 -4.769531"/></g></g></g><g fill-opacity="1" fill="#00488a"><g transform="translate(244.012012, 226.54169)"><g><path d="M 0.886719 -7.488281 L 2.621094 -7.488281 L 2.621094 0 L 0.886719 0 Z M 0.886719 -7.488281"/></g></g></g><g fill-opacity="1" fill="#00488a"><g transform="translate(249.678187, 226.54169)"><g><path d="M 6.683594 -1.390625 L 6.683594 0 L 0.886719 0 L 0.886719 -7.488281 L 6.546875 -7.488281 L 6.546875 -6.097656 L 2.609375 -6.097656 L 2.609375 -4.46875 L 6.085938 -4.46875 L 6.085938 -3.121094 L 2.609375 -3.121094 L 2.609375 -1.390625 Z M 6.683594 -1.390625"/></g></g></g><g fill-opacity="1" fill="#00488a"><g transform="translate(259.010191, 226.54169)"><g><path d="M 3.347656 0.128906 C 2.753906 0.128906 2.183594 0.046875 1.632812 -0.113281 C 1.078125 -0.273438 0.632812 -0.480469 0.300781 -0.738281 L 0.886719 -2.042969 C 1.207031 -1.808594 1.589844 -1.617188 2.03125 -1.476562 C 2.472656 -1.332031 2.917969 -1.261719 3.359375 -1.261719 C 3.851562 -1.261719 4.214844 -1.335938 4.449219 -1.480469 C 4.683594 -1.628906 4.800781 -1.820312 4.800781 -2.0625 C 4.800781 -2.242188 4.734375 -2.390625 4.59375 -2.507812 C 4.453125 -2.625 4.277344 -2.71875 4.058594 -2.792969 C 3.839844 -2.863281 3.546875 -2.941406 3.175781 -3.027344 C 2.605469 -3.164062 2.140625 -3.296875 1.773438 -3.433594 C 1.410156 -3.570312 1.101562 -3.785156 0.839844 -4.085938 C 0.578125 -4.386719 0.449219 -4.785156 0.449219 -5.285156 C 0.449219 -5.71875 0.566406 -6.113281 0.800781 -6.464844 C 1.039062 -6.816406 1.390625 -7.097656 1.867188 -7.304688 C 2.339844 -7.511719 2.917969 -7.613281 3.605469 -7.613281 C 4.082031 -7.613281 4.550781 -7.558594 5.003906 -7.445312 C 5.460938 -7.328125 5.859375 -7.164062 6.203125 -6.953125 L 5.667969 -5.636719 C 4.976562 -6.027344 4.285156 -6.222656 3.59375 -6.222656 C 3.109375 -6.222656 2.75 -6.144531 2.519531 -5.988281 C 2.285156 -5.832031 2.171875 -5.625 2.171875 -5.367188 C 2.171875 -5.113281 2.304688 -4.921875 2.570312 -4.796875 C 2.839844 -4.671875 3.246094 -4.550781 3.796875 -4.425781 C 4.367188 -4.292969 4.835938 -4.15625 5.199219 -4.019531 C 5.5625 -3.886719 5.875 -3.671875 6.132812 -3.378906 C 6.394531 -3.085938 6.523438 -2.691406 6.523438 -2.191406 C 6.523438 -1.765625 6.40625 -1.375 6.164062 -1.019531 C 5.925781 -0.667969 5.570312 -0.386719 5.089844 -0.183594 C 4.613281 0.0234375 4.03125 0.128906 3.347656 0.128906 Z M 3.347656 0.128906"/></g></g></g><g fill-opacity="1" fill="#003b73"><g transform="translate(57.522726, 246.998569)"><g><path d="M 1.394531 -4.976562 C 1.183594 -4.976562 1.015625 -5.050781 0.886719 -5.195312 C 0.757812 -5.34375 0.691406 -5.574219 0.691406 -5.890625 C 0.691406 -6.378906 0.8125 -6.808594 1.050781 -7.175781 C 1.292969 -7.542969 1.644531 -7.878906 2.117188 -8.1875 L 2.464844 -7.648438 C 2.136719 -7.460938 1.871094 -7.246094 1.667969 -7.003906 C 1.46875 -6.761719 1.363281 -6.511719 1.351562 -6.25 C 1.566406 -6.25 1.734375 -6.191406 1.855469 -6.078125 C 1.976562 -5.960938 2.035156 -5.8125 2.035156 -5.621094 C 2.035156 -5.429688 1.976562 -5.277344 1.859375 -5.15625 C 1.742188 -5.035156 1.589844 -4.976562 1.394531 -4.976562 Z M 3.460938 -4.976562 C 3.25 -4.976562 3.082031 -5.050781 2.953125 -5.195312 C 2.824219 -5.34375 2.757812 -5.574219 2.757812 -5.890625 C 2.757812 -6.378906 2.878906 -6.808594 3.121094 -7.175781 C 3.359375 -7.542969 3.714844 -7.878906 4.183594 -8.1875 L 4.53125 -7.648438 C 4.203125 -7.460938 3.9375 -7.246094 3.738281 -7.003906 C 3.535156 -6.761719 3.429688 -6.511719 3.417969 -6.25 C 3.632812 -6.25 3.800781 -6.191406 3.921875 -6.078125 C 4.042969 -5.960938 4.101562 -5.8125 4.101562 -5.621094 C 4.101562 -5.429688 4.042969 -5.277344 3.925781 -5.15625 C 3.8125 -5.035156 3.65625 -4.976562 3.460938 -4.976562 Z M 3.460938 -4.976562"/></g></g></g><g fill-opacity="1" fill="#003b73"><g transform="translate(62.186834, 246.998569)"><g><path d="M 3.398438 0.113281 C 2.875 0.113281 2.40625 -0.0078125 1.992188 -0.246094 C 1.578125 -0.480469 1.25 -0.832031 1.007812 -1.296875 C 0.769531 -1.761719 0.648438 -2.3125 0.648438 -2.957031 C 0.648438 -3.605469 0.769531 -4.160156 1.007812 -4.625 C 1.25 -5.089844 1.578125 -5.4375 1.992188 -5.675781 C 2.40625 -5.914062 2.875 -6.035156 3.398438 -6.035156 C 4.023438 -6.035156 4.523438 -5.917969 4.894531 -5.679688 C 5.265625 -5.445312 5.53125 -5.128906 5.695312 -4.734375 L 5.101562 -4.304688 L 4.992188 -4.304688 C 4.832031 -4.632812 4.625 -4.871094 4.371094 -5.023438 C 4.121094 -5.175781 3.796875 -5.25 3.398438 -5.25 C 3.035156 -5.25 2.714844 -5.164062 2.4375 -4.992188 C 2.160156 -4.820312 1.949219 -4.5625 1.796875 -4.21875 C 1.644531 -3.875 1.566406 -3.457031 1.566406 -2.957031 C 1.566406 -2.464844 1.644531 -2.046875 1.796875 -1.703125 C 1.953125 -1.363281 2.167969 -1.105469 2.441406 -0.929688 C 2.714844 -0.757812 3.035156 -0.671875 3.398438 -0.671875 C 3.808594 -0.671875 4.152344 -0.765625 4.421875 -0.949219 C 4.691406 -1.136719 4.902344 -1.429688 5.058594 -1.832031 L 5.171875 -1.832031 L 5.746094 -1.492188 C 5.589844 -0.996094 5.316406 -0.601562 4.921875 -0.316406 C 4.523438 -0.03125 4.015625 0.113281 3.398438 0.113281 Z M 3.398438 0.113281"/></g></g></g><g fill-opacity="1" fill="#003b73"><g transform="translate(68.289429, 246.998569)"><g><path d="M 3.398438 0.113281 C 2.839844 0.113281 2.355469 -0.00390625 1.941406 -0.242188 C 1.527344 -0.476562 1.207031 -0.824219 0.984375 -1.285156 C 0.761719 -1.746094 0.648438 -2.304688 0.648438 -2.957031 C 0.648438 -3.613281 0.761719 -4.171875 0.984375 -4.632812 C 1.207031 -5.09375 1.527344 -5.445312 1.941406 -5.679688 C 2.355469 -5.917969 2.839844 -6.035156 3.398438 -6.035156 C 3.957031 -6.035156 4.441406 -5.917969 4.855469 -5.679688 C 5.269531 -5.445312 5.585938 -5.09375 5.8125 -4.632812 C 6.035156 -4.171875 6.148438 -3.613281 6.148438 -2.957031 C 6.148438 -2.304688 6.035156 -1.746094 5.8125 -1.285156 C 5.585938 -0.824219 5.269531 -0.476562 4.855469 -0.242188 C 4.441406 -0.00390625 3.957031 0.113281 3.398438 0.113281 Z M 3.398438 -0.671875 C 3.988281 -0.671875 4.441406 -0.855469 4.753906 -1.230469 C 5.066406 -1.601562 5.222656 -2.179688 5.222656 -2.957031 C 5.222656 -3.742188 5.066406 -4.320312 4.753906 -4.691406 C 4.441406 -5.0625 3.988281 -5.25 3.398438 -5.25 C 2.808594 -5.25 2.355469 -5.0625 2.039062 -4.691406 C 1.726562 -4.316406 1.566406 -3.738281 1.566406 -2.957031 C 1.566406 -2.179688 1.726562 -1.601562 2.039062 -1.230469 C 2.355469 -0.855469 2.808594 -0.671875 3.398438 -0.671875 Z M 3.398438 -0.671875"/></g></g></g><g fill-opacity="1" fill="#003b73"><g transform="translate(75.084404, 246.998569)"><g><path d="M 1.03125 0 L 1.03125 -5.921875 L 1.863281 -5.921875 L 1.863281 -5.046875 L 1.976562 -5.023438 C 2.175781 -5.359375 2.417969 -5.609375 2.703125 -5.78125 C 2.988281 -5.949219 3.328125 -6.035156 3.726562 -6.035156 C 4.183594 -6.035156 4.539062 -5.949219 4.789062 -5.773438 C 5.039062 -5.601562 5.234375 -5.320312 5.375 -4.933594 L 5.488281 -4.933594 C 5.691406 -5.296875 5.941406 -5.570312 6.242188 -5.753906 C 6.539062 -5.941406 6.90625 -6.035156 7.34375 -6.035156 C 7.953125 -6.035156 8.40625 -5.871094 8.707031 -5.539062 C 9.003906 -5.210938 9.152344 -4.710938 9.152344 -4.039062 L 9.152344 0 L 8.277344 0 L 8.277344 -4.015625 C 8.277344 -4.445312 8.1875 -4.761719 8.007812 -4.964844 C 7.828125 -5.171875 7.535156 -5.273438 7.136719 -5.273438 C 6.664062 -5.273438 6.277344 -5.101562 5.976562 -4.757812 C 5.679688 -4.414062 5.53125 -3.847656 5.53125 -3.058594 L 5.53125 0 L 4.65625 0 L 4.65625 -4.015625 C 4.65625 -4.445312 4.5625 -4.761719 4.382812 -4.964844 C 4.203125 -5.171875 3.910156 -5.273438 3.511719 -5.273438 C 3.039062 -5.273438 2.652344 -5.105469 2.355469 -4.773438 C 2.054688 -4.441406 1.90625 -3.898438 1.90625 -3.152344 L 1.90625 0 Z M 1.03125 0"/></g></g></g><g fill-opacity="1" fill="#003b73"><g transform="translate(85.174888, 246.998569)"><g><path d="M 1.03125 2.398438 L 1.03125 -5.921875 L 1.90625 -5.921875 L 1.90625 -5.035156 L 2.019531 -5.015625 C 2.457031 -5.695312 3.105469 -6.035156 3.957031 -6.035156 C 4.449219 -6.035156 4.882812 -5.921875 5.25 -5.695312 C 5.621094 -5.46875 5.90625 -5.128906 6.109375 -4.667969 C 6.3125 -4.207031 6.414062 -3.636719 6.414062 -2.957031 C 6.414062 -2.28125 6.308594 -1.714844 6.09375 -1.257812 C 5.878906 -0.796875 5.582031 -0.457031 5.203125 -0.226562 C 4.824219 0 4.386719 0.113281 3.890625 0.113281 C 3.492188 0.113281 3.136719 0.0429688 2.824219 -0.0976562 C 2.511719 -0.234375 2.242188 -0.464844 2.019531 -0.785156 L 1.90625 -0.761719 L 1.90625 2.398438 Z M 3.699219 -0.671875 C 4.898438 -0.671875 5.496094 -1.433594 5.496094 -2.957031 C 5.496094 -4.488281 4.898438 -5.25 3.699219 -5.25 C 3.347656 -5.25 3.039062 -5.171875 2.769531 -5.007812 C 2.5 -4.847656 2.289062 -4.597656 2.136719 -4.253906 C 1.984375 -3.914062 1.90625 -3.480469 1.90625 -2.957031 C 1.90625 -2.4375 1.984375 -2.007812 2.136719 -1.667969 C 2.289062 -1.324219 2.5 -1.074219 2.769531 -0.914062 C 3.039062 -0.75 3.347656 -0.671875 3.699219 -0.671875 Z M 3.699219 -0.671875"/></g></g></g><g fill-opacity="1" fill="#003b73"><g transform="translate(92.238227, 246.998569)"><g><path d="M 2.355469 0.113281 C 1.9375 0.113281 1.609375 -0.0078125 1.367188 -0.246094 C 1.128906 -0.480469 1.007812 -0.835938 1.007812 -1.308594 L 1.007812 -8.300781 L 1.882812 -8.300781 L 1.882812 -1.367188 C 1.882812 -1.121094 1.933594 -0.945312 2.027344 -0.835938 C 2.121094 -0.726562 2.269531 -0.671875 2.46875 -0.671875 C 2.589844 -0.671875 2.714844 -0.691406 2.839844 -0.730469 L 2.914062 -0.707031 L 3.015625 -0.0195312 C 2.953125 0.0195312 2.859375 0.0546875 2.742188 0.078125 C 2.621094 0.101562 2.492188 0.113281 2.355469 0.113281 Z M 2.355469 0.113281"/></g></g></g><g fill-opacity="1" fill="#003b73"><g transform="translate(95.458594, 246.998569)"><g><path d="M 5.640625 -2.757812 L 1.574219 -2.757812 C 1.597656 -2.039062 1.769531 -1.511719 2.089844 -1.175781 C 2.410156 -0.839844 2.851562 -0.671875 3.410156 -0.671875 C 3.832031 -0.671875 4.171875 -0.746094 4.429688 -0.898438 C 4.6875 -1.046875 4.890625 -1.28125 5.035156 -1.605469 L 5.148438 -1.605469 L 5.71875 -1.265625 C 5.546875 -0.835938 5.269531 -0.5 4.894531 -0.253906 C 4.515625 -0.0117188 4.019531 0.113281 3.410156 0.113281 C 2.835938 0.113281 2.34375 0 1.933594 -0.226562 C 1.519531 -0.449219 1.203125 -0.792969 0.984375 -1.25 C 0.761719 -1.710938 0.648438 -2.277344 0.648438 -2.957031 C 0.648438 -3.632812 0.765625 -4.199219 1 -4.660156 C 1.234375 -5.121094 1.554688 -5.464844 1.960938 -5.695312 C 2.367188 -5.921875 2.832031 -6.035156 3.355469 -6.035156 C 4.113281 -6.035156 4.707031 -5.820312 5.132812 -5.394531 C 5.558594 -4.964844 5.773438 -4.332031 5.777344 -3.488281 C 5.777344 -3.160156 5.769531 -2.9375 5.753906 -2.824219 Z M 4.914062 -3.488281 C 4.898438 -4.121094 4.757812 -4.578125 4.492188 -4.863281 C 4.230469 -5.148438 3.847656 -5.292969 3.355469 -5.292969 C 2.835938 -5.292969 2.429688 -5.148438 2.132812 -4.859375 C 1.839844 -4.574219 1.660156 -4.117188 1.59375 -3.488281 Z M 4.914062 -3.488281"/></g></g></g><g fill-opacity="1" fill="#003b73"><g transform="translate(101.770514, 246.998569)"><g><path d="M 4.003906 -0.941406 L 4.285156 -0.3125 C 4.144531 -0.171875 3.960938 -0.0664062 3.734375 0.00390625 C 3.507812 0.078125 3.261719 0.113281 2.996094 0.113281 C 1.863281 0.113281 1.300781 -0.460938 1.300781 -1.605469 L 1.300781 -5.207031 L 0.269531 -5.207031 L 0.269531 -5.925781 L 1.300781 -5.925781 L 1.300781 -7.179688 L 2.175781 -7.324219 L 2.175781 -5.925781 L 4.082031 -5.925781 L 4.082031 -5.207031 L 2.175781 -5.207031 L 2.175781 -1.691406 C 2.175781 -1.011719 2.46875 -0.671875 3.058594 -0.671875 C 3.382812 -0.671875 3.660156 -0.761719 3.890625 -0.941406 Z M 4.003906 -0.941406"/></g></g></g><g fill-opacity="1" fill="#003b73"><g transform="translate(106.209231, 246.998569)"><g><path d="M 5.640625 -2.757812 L 1.574219 -2.757812 C 1.597656 -2.039062 1.769531 -1.511719 2.089844 -1.175781 C 2.410156 -0.839844 2.851562 -0.671875 3.410156 -0.671875 C 3.832031 -0.671875 4.171875 -0.746094 4.429688 -0.898438 C 4.6875 -1.046875 4.890625 -1.28125 5.035156 -1.605469 L 5.148438 -1.605469 L 5.71875 -1.265625 C 5.546875 -0.835938 5.269531 -0.5 4.894531 -0.253906 C 4.515625 -0.0117188 4.019531 0.113281 3.410156 0.113281 C 2.835938 0.113281 2.34375 0 1.933594 -0.226562 C 1.519531 -0.449219 1.203125 -0.792969 0.984375 -1.25 C 0.761719 -1.710938 0.648438 -2.277344 0.648438 -2.957031 C 0.648438 -3.632812 0.765625 -4.199219 1 -4.660156 C 1.234375 -5.121094 1.554688 -5.464844 1.960938 -5.695312 C 2.367188 -5.921875 2.832031 -6.035156 3.355469 -6.035156 C 4.113281 -6.035156 4.707031 -5.820312 5.132812 -5.394531 C 5.558594 -4.964844 5.773438 -4.332031 5.777344 -3.488281 C 5.777344 -3.160156 5.769531 -2.9375 5.753906 -2.824219 Z M 4.914062 -3.488281 C 4.898438 -4.121094 4.757812 -4.578125 4.492188 -4.863281 C 4.230469 -5.148438 3.847656 -5.292969 3.355469 -5.292969 C 2.835938 -5.292969 2.429688 -5.148438 2.132812 -4.859375 C 1.839844 -4.574219 1.660156 -4.117188 1.59375 -3.488281 Z M 4.914062 -3.488281"/></g></g></g><g fill-opacity="1" fill="#003b73"><g transform="translate(115.215524, 246.998569)"><g><path d="M 3.050781 2.511719 C 2.117188 2.511719 1.433594 2.355469 1.003906 2.046875 C 0.574219 1.734375 0.359375 1.320312 0.359375 0.804688 C 0.359375 0.472656 0.460938 0.207031 0.660156 0.0117188 C 0.859375 -0.1875 1.152344 -0.328125 1.535156 -0.414062 L 1.535156 -0.527344 C 1.351562 -0.628906 1.214844 -0.75 1.125 -0.890625 C 1.035156 -1.03125 0.988281 -1.195312 0.988281 -1.390625 C 0.988281 -1.621094 1.058594 -1.804688 1.207031 -1.949219 C 1.351562 -2.09375 1.566406 -2.199219 1.851562 -2.277344 L 1.851562 -2.390625 C 1.207031 -2.730469 0.886719 -3.28125 0.886719 -4.046875 C 0.886719 -4.433594 0.972656 -4.777344 1.148438 -5.078125 C 1.324219 -5.378906 1.574219 -5.613281 1.902344 -5.78125 C 2.226562 -5.949219 2.605469 -6.035156 3.039062 -6.035156 C 3.535156 -6.035156 3.953125 -5.925781 4.285156 -5.707031 C 4.410156 -5.847656 4.503906 -5.996094 4.566406 -6.15625 C 4.628906 -6.3125 4.667969 -6.496094 4.6875 -6.695312 L 4.800781 -6.765625 L 5.519531 -6.59375 C 5.484375 -6.292969 5.394531 -6.039062 5.246094 -5.832031 C 5.101562 -5.621094 4.898438 -5.449219 4.632812 -5.316406 L 4.632812 -5.203125 C 4.824219 -5.050781 4.964844 -4.875 5.054688 -4.671875 C 5.144531 -4.472656 5.191406 -4.234375 5.191406 -3.96875 C 5.191406 -3.59375 5.101562 -3.261719 4.921875 -2.964844 C 4.742188 -2.667969 4.492188 -2.433594 4.167969 -2.261719 C 3.839844 -2.09375 3.464844 -2.007812 3.039062 -2.007812 C 2.988281 -2.007812 2.898438 -2.011719 2.769531 -2.019531 C 2.628906 -2.027344 2.519531 -2.03125 2.453125 -2.03125 C 2.265625 -2.03125 2.117188 -1.980469 2.007812 -1.882812 C 1.898438 -1.789062 1.839844 -1.664062 1.839844 -1.515625 C 1.839844 -1.328125 1.902344 -1.191406 2.019531 -1.101562 C 2.140625 -1.015625 2.339844 -0.964844 2.613281 -0.957031 L 4.015625 -0.90625 C 4.621094 -0.886719 5.070312 -0.746094 5.359375 -0.484375 C 5.652344 -0.226562 5.796875 0.140625 5.796875 0.617188 C 5.796875 0.972656 5.703125 1.292969 5.511719 1.574219 C 5.324219 1.859375 5.023438 2.085938 4.613281 2.257812 C 4.199219 2.425781 3.679688 2.511719 3.050781 2.511719 Z M 3.039062 -2.757812 C 3.457031 -2.757812 3.78125 -2.867188 4.011719 -3.085938 C 4.238281 -3.304688 4.355469 -3.609375 4.355469 -4.003906 C 4.355469 -4.414062 4.242188 -4.726562 4.011719 -4.949219 C 3.785156 -5.171875 3.460938 -5.28125 3.039062 -5.28125 C 2.617188 -5.28125 2.292969 -5.171875 2.074219 -4.953125 C 1.851562 -4.734375 1.738281 -4.417969 1.738281 -4.003906 C 1.738281 -3.609375 1.851562 -3.300781 2.074219 -3.085938 C 2.292969 -2.867188 2.617188 -2.757812 3.039062 -2.757812 Z M 3.050781 1.761719 C 3.484375 1.761719 3.84375 1.710938 4.121094 1.617188 C 4.398438 1.519531 4.597656 1.390625 4.71875 1.230469 C 4.839844 1.074219 4.902344 0.894531 4.902344 0.699219 C 4.902344 0.523438 4.867188 0.382812 4.800781 0.273438 C 4.734375 0.167969 4.628906 0.0859375 4.484375 0.03125 C 4.335938 -0.0195312 4.136719 -0.0546875 3.882812 -0.0703125 L 2.554688 -0.132812 L 2.367188 -0.132812 C 1.625 -0.125 1.257812 0.164062 1.257812 0.730469 C 1.257812 1.417969 1.855469 1.761719 3.050781 1.761719 Z M 3.050781 1.761719"/></g></g></g><g fill-opacity="1" fill="#003b73"><g transform="translate(121.280549, 246.998569)"><g><path d="M 2.355469 0.113281 C 1.9375 0.113281 1.609375 -0.0078125 1.367188 -0.246094 C 1.128906 -0.480469 1.007812 -0.835938 1.007812 -1.308594 L 1.007812 -8.300781 L 1.882812 -8.300781 L 1.882812 -1.367188 C 1.882812 -1.121094 1.933594 -0.945312 2.027344 -0.835938 C 2.121094 -0.726562 2.269531 -0.671875 2.46875 -0.671875 C 2.589844 -0.671875 2.714844 -0.691406 2.839844 -0.730469 L 2.914062 -0.707031 L 3.015625 -0.0195312 C 2.953125 0.0195312 2.859375 0.0546875 2.742188 0.078125 C 2.621094 0.101562 2.492188 0.113281 2.355469 0.113281 Z M 2.355469 0.113281"/></g></g></g><g fill-opacity="1" fill="#003b73"><g transform="translate(124.500916, 246.998569)"><g><path d="M 3.398438 0.113281 C 2.839844 0.113281 2.355469 -0.00390625 1.941406 -0.242188 C 1.527344 -0.476562 1.207031 -0.824219 0.984375 -1.285156 C 0.761719 -1.746094 0.648438 -2.304688 0.648438 -2.957031 C 0.648438 -3.613281 0.761719 -4.171875 0.984375 -4.632812 C 1.207031 -5.09375 1.527344 -5.445312 1.941406 -5.679688 C 2.355469 -5.917969 2.839844 -6.035156 3.398438 -6.035156 C 3.957031 -6.035156 4.441406 -5.917969 4.855469 -5.679688 C 5.269531 -5.445312 5.585938 -5.09375 5.8125 -4.632812 C 6.035156 -4.171875 6.148438 -3.613281 6.148438 -2.957031 C 6.148438 -2.304688 6.035156 -1.746094 5.8125 -1.285156 C 5.585938 -0.824219 5.269531 -0.476562 4.855469 -0.242188 C 4.441406 -0.00390625 3.957031 0.113281 3.398438 0.113281 Z M 3.398438 -0.671875 C 3.988281 -0.671875 4.441406 -0.855469 4.753906 -1.230469 C 5.066406 -1.601562 5.222656 -2.179688 5.222656 -2.957031 C 5.222656 -3.742188 5.066406 -4.320312 4.753906 -4.691406 C 4.441406 -5.0625 3.988281 -5.25 3.398438 -5.25 C 2.808594 -5.25 2.355469 -5.0625 2.039062 -4.691406 C 1.726562 -4.316406 1.566406 -3.738281 1.566406 -2.957031 C 1.566406 -2.179688 1.726562 -1.601562 2.039062 -1.230469 C 2.355469 -0.855469 2.808594 -0.671875 3.398438 -0.671875 Z M 3.398438 -0.671875"/></g></g></g><g fill-opacity="1" fill="#003b73"><g transform="translate(131.295891, 246.998569)"><g><path d="M 3.933594 0.113281 C 3.496094 0.113281 3.113281 0.0273438 2.789062 -0.140625 C 2.464844 -0.3125 2.207031 -0.535156 2.019531 -0.816406 L 1.90625 -0.792969 L 1.90625 0 L 1.03125 0 L 1.03125 -8.300781 L 1.90625 -8.300781 L 1.90625 -5.035156 L 2.019531 -5.015625 C 2.46875 -5.695312 3.125 -6.035156 3.984375 -6.035156 C 4.46875 -6.035156 4.894531 -5.921875 5.261719 -5.695312 C 5.625 -5.46875 5.910156 -5.128906 6.113281 -4.667969 C 6.3125 -4.207031 6.414062 -3.636719 6.414062 -2.957031 C 6.414062 -2.285156 6.308594 -1.71875 6.097656 -1.257812 C 5.882812 -0.800781 5.589844 -0.457031 5.21875 -0.226562 C 4.847656 0 4.417969 0.113281 3.933594 0.113281 Z M 3.726562 -0.671875 C 4.90625 -0.671875 5.496094 -1.433594 5.496094 -2.957031 C 5.496094 -3.75 5.34375 -4.328125 5.035156 -4.699219 C 4.726562 -5.066406 4.292969 -5.25 3.726562 -5.25 C 3.171875 -5.25 2.730469 -5.0625 2.398438 -4.683594 C 2.070312 -4.304688 1.90625 -3.730469 1.90625 -2.957031 C 1.90625 -2.1875 2.070312 -1.613281 2.398438 -1.238281 C 2.730469 -0.859375 3.171875 -0.671875 3.726562 -0.671875 Z M 3.726562 -0.671875"/></g></g></g><g fill-opacity="1" fill="#003b73"><g transform="translate(138.35923, 246.998569)"><g><path d="M 2.441406 0.113281 C 1.859375 0.113281 1.402344 -0.0390625 1.078125 -0.34375 C 0.75 -0.648438 0.585938 -1.082031 0.585938 -1.648438 C 0.585938 -2 0.65625 -2.296875 0.800781 -2.535156 C 0.949219 -2.777344 1.171875 -2.976562 1.476562 -3.128906 C 1.78125 -3.28125 2.179688 -3.398438 2.667969 -3.480469 C 3.097656 -3.550781 3.425781 -3.632812 3.648438 -3.71875 C 3.871094 -3.808594 4.023438 -3.910156 4.097656 -4.019531 C 4.175781 -4.132812 4.214844 -4.273438 4.214844 -4.441406 C 4.214844 -4.707031 4.121094 -4.914062 3.9375 -5.058594 C 3.753906 -5.199219 3.457031 -5.273438 3.050781 -5.273438 C 2.667969 -5.273438 2.339844 -5.199219 2.0625 -5.050781 C 1.789062 -4.902344 1.539062 -4.679688 1.308594 -4.386719 L 1.203125 -4.386719 L 0.773438 -4.992188 C 1.023438 -5.3125 1.34375 -5.566406 1.730469 -5.753906 C 2.117188 -5.941406 2.554688 -6.035156 3.050781 -6.035156 C 3.746094 -6.035156 4.261719 -5.882812 4.59375 -5.574219 C 4.925781 -5.269531 5.089844 -4.847656 5.089844 -4.304688 L 5.089844 -1.164062 C 5.089844 -0.835938 5.230469 -0.671875 5.507812 -0.671875 C 5.601562 -0.671875 5.691406 -0.6875 5.777344 -0.71875 L 5.851562 -0.699219 L 5.953125 -0.0898438 C 5.890625 -0.046875 5.804688 -0.015625 5.699219 0.0078125 C 5.59375 0.03125 5.484375 0.0429688 5.375 0.0429688 C 5.046875 0.0429688 4.800781 -0.0273438 4.636719 -0.171875 C 4.46875 -0.316406 4.363281 -0.527344 4.316406 -0.804688 L 4.203125 -0.816406 C 4.035156 -0.503906 3.808594 -0.273438 3.523438 -0.117188 C 3.234375 0.0351562 2.875 0.113281 2.441406 0.113281 Z M 2.636719 -0.585938 C 2.964844 -0.585938 3.25 -0.660156 3.492188 -0.8125 C 3.734375 -0.964844 3.917969 -1.179688 4.046875 -1.453125 C 4.175781 -1.730469 4.242188 -2.050781 4.242188 -2.410156 L 4.242188 -3.164062 L 4.140625 -3.183594 C 4.007812 -3.089844 3.847656 -3.011719 3.65625 -2.949219 C 3.464844 -2.886719 3.203125 -2.832031 2.863281 -2.78125 C 2.519531 -2.734375 2.246094 -2.664062 2.042969 -2.566406 C 1.839844 -2.46875 1.695312 -2.347656 1.609375 -2.199219 C 1.523438 -2.050781 1.480469 -1.867188 1.480469 -1.648438 C 1.480469 -1.300781 1.582031 -1.035156 1.789062 -0.855469 C 1.992188 -0.675781 2.273438 -0.585938 2.636719 -0.585938 Z M 2.636719 -0.585938"/></g></g></g><g fill-opacity="1" fill="#003b73"><g transform="translate(144.483295, 246.998569)"><g><path d="M 2.355469 0.113281 C 1.9375 0.113281 1.609375 -0.0078125 1.367188 -0.246094 C 1.128906 -0.480469 1.007812 -0.835938 1.007812 -1.308594 L 1.007812 -8.300781 L 1.882812 -8.300781 L 1.882812 -1.367188 C 1.882812 -1.121094 1.933594 -0.945312 2.027344 -0.835938 C 2.121094 -0.726562 2.269531 -0.671875 2.46875 -0.671875 C 2.589844 -0.671875 2.714844 -0.691406 2.839844 -0.730469 L 2.914062 -0.707031 L 3.015625 -0.0195312 C 2.953125 0.0195312 2.859375 0.0546875 2.742188 0.078125 C 2.621094 0.101562 2.492188 0.113281 2.355469 0.113281 Z M 2.355469 0.113281"/></g></g></g><g fill-opacity="1" fill="#003b73"><g transform="translate(150.398036, 246.998569)"><g><path d="M 1.320312 0 L 1.320312 -5.207031 L 0.289062 -5.207031 L 0.289062 -5.925781 L 1.320312 -5.925781 C 1.257812 -6.183594 1.222656 -6.429688 1.222656 -6.664062 C 1.222656 -7.046875 1.304688 -7.367188 1.46875 -7.632812 C 1.632812 -7.894531 1.859375 -8.089844 2.148438 -8.21875 C 2.4375 -8.347656 2.773438 -8.414062 3.152344 -8.414062 C 3.742188 -8.414062 4.195312 -8.285156 4.507812 -8.03125 L 4.171875 -7.414062 L 4.058594 -7.394531 C 3.824219 -7.578125 3.523438 -7.671875 3.152344 -7.671875 C 2.804688 -7.671875 2.542969 -7.582031 2.363281 -7.402344 C 2.1875 -7.222656 2.097656 -6.96875 2.097656 -6.640625 C 2.097656 -6.4375 2.132812 -6.199219 2.195312 -5.925781 L 4.082031 -5.925781 L 4.082031 -5.207031 L 2.195312 -5.207031 L 2.195312 0 Z M 1.320312 0"/></g></g></g><g fill-opacity="1" fill="#003b73"><g transform="translate(154.616717, 246.998569)"><g><path d="M 2.355469 0.113281 C 1.9375 0.113281 1.609375 -0.0078125 1.367188 -0.246094 C 1.128906 -0.480469 1.007812 -0.835938 1.007812 -1.308594 L 1.007812 -8.300781 L 1.882812 -8.300781 L 1.882812 -1.367188 C 1.882812 -1.121094 1.933594 -0.945312 2.027344 -0.835938 C 2.121094 -0.726562 2.269531 -0.671875 2.46875 -0.671875 C 2.589844 -0.671875 2.714844 -0.691406 2.839844 -0.730469 L 2.914062 -0.707031 L 3.015625 -0.0195312 C 2.953125 0.0195312 2.859375 0.0546875 2.742188 0.078125 C 2.621094 0.101562 2.492188 0.113281 2.355469 0.113281 Z M 2.355469 0.113281"/></g></g></g><g fill-opacity="1" fill="#003b73"><g transform="translate(157.837084, 246.998569)"><g><path d="M 3.398438 0.113281 C 2.839844 0.113281 2.355469 -0.00390625 1.941406 -0.242188 C 1.527344 -0.476562 1.207031 -0.824219 0.984375 -1.285156 C 0.761719 -1.746094 0.648438 -2.304688 0.648438 -2.957031 C 0.648438 -3.613281 0.761719 -4.171875 0.984375 -4.632812 C 1.207031 -5.09375 1.527344 -5.445312 1.941406 -5.679688 C 2.355469 -5.917969 2.839844 -6.035156 3.398438 -6.035156 C 3.957031 -6.035156 4.441406 -5.917969 4.855469 -5.679688 C 5.269531 -5.445312 5.585938 -5.09375 5.8125 -4.632812 C 6.035156 -4.171875 6.148438 -3.613281 6.148438 -2.957031 C 6.148438 -2.304688 6.035156 -1.746094 5.8125 -1.285156 C 5.585938 -0.824219 5.269531 -0.476562 4.855469 -0.242188 C 4.441406 -0.00390625 3.957031 0.113281 3.398438 0.113281 Z M 3.398438 -0.671875 C 3.988281 -0.671875 4.441406 -0.855469 4.753906 -1.230469 C 5.066406 -1.601562 5.222656 -2.179688 5.222656 -2.957031 C 5.222656 -3.742188 5.066406 -4.320312 4.753906 -4.691406 C 4.441406 -5.0625 3.988281 -5.25 3.398438 -5.25 C 2.808594 -5.25 2.355469 -5.0625 2.039062 -4.691406 C 1.726562 -4.316406 1.566406 -3.738281 1.566406 -2.957031 C 1.566406 -2.179688 1.726562 -1.601562 2.039062 -1.230469 C 2.355469 -0.855469 2.808594 -0.671875 3.398438 -0.671875 Z M 3.398438 -0.671875"/></g></g></g><g fill-opacity="1" fill="#003b73"><g transform="translate(164.589109, 246.998569)"><g><path d="M 2.9375 0 L 1.832031 0 L 0.382812 -5.921875 L 1.246094 -5.921875 L 2.367188 -1.019531 L 2.480469 -1.019531 L 3.859375 -5.921875 L 4.777344 -5.921875 L 6.199219 -1.019531 L 6.3125 -1.019531 L 7.414062 -5.921875 L 8.25 -5.921875 L 6.816406 0 L 5.707031 0 L 4.355469 -4.59375 L 4.242188 -4.59375 Z M 2.9375 0"/></g></g></g><g fill-opacity="1" fill="#003b73"><g transform="translate(175.914067, 246.998569)"><g><path d="M 3.398438 0.113281 C 2.875 0.113281 2.40625 -0.0078125 1.992188 -0.246094 C 1.578125 -0.480469 1.25 -0.832031 1.007812 -1.296875 C 0.769531 -1.761719 0.648438 -2.3125 0.648438 -2.957031 C 0.648438 -3.605469 0.769531 -4.160156 1.007812 -4.625 C 1.25 -5.089844 1.578125 -5.4375 1.992188 -5.675781 C 2.40625 -5.914062 2.875 -6.035156 3.398438 -6.035156 C 4.023438 -6.035156 4.523438 -5.917969 4.894531 -5.679688 C 5.265625 -5.445312 5.53125 -5.128906 5.695312 -4.734375 L 5.101562 -4.304688 L 4.992188 -4.304688 C 4.832031 -4.632812 4.625 -4.871094 4.371094 -5.023438 C 4.121094 -5.175781 3.796875 -5.25 3.398438 -5.25 C 3.035156 -5.25 2.714844 -5.164062 2.4375 -4.992188 C 2.160156 -4.820312 1.949219 -4.5625 1.796875 -4.21875 C 1.644531 -3.875 1.566406 -3.457031 1.566406 -2.957031 C 1.566406 -2.464844 1.644531 -2.046875 1.796875 -1.703125 C 1.953125 -1.363281 2.167969 -1.105469 2.441406 -0.929688 C 2.714844 -0.757812 3.035156 -0.671875 3.398438 -0.671875 C 3.808594 -0.671875 4.152344 -0.765625 4.421875 -0.949219 C 4.691406 -1.136719 4.902344 -1.429688 5.058594 -1.832031 L 5.171875 -1.832031 L 5.746094 -1.492188 C 5.589844 -0.996094 5.316406 -0.601562 4.921875 -0.316406 C 4.523438 -0.03125 4.015625 0.113281 3.398438 0.113281 Z M 3.398438 0.113281"/></g></g></g><g fill-opacity="1" fill="#003b73"><g transform="translate(182.016663, 246.998569)"><g><path d="M 3.398438 0.113281 C 2.839844 0.113281 2.355469 -0.00390625 1.941406 -0.242188 C 1.527344 -0.476562 1.207031 -0.824219 0.984375 -1.285156 C 0.761719 -1.746094 0.648438 -2.304688 0.648438 -2.957031 C 0.648438 -3.613281 0.761719 -4.171875 0.984375 -4.632812 C 1.207031 -5.09375 1.527344 -5.445312 1.941406 -5.679688 C 2.355469 -5.917969 2.839844 -6.035156 3.398438 -6.035156 C 3.957031 -6.035156 4.441406 -5.917969 4.855469 -5.679688 C 5.269531 -5.445312 5.585938 -5.09375 5.8125 -4.632812 C 6.035156 -4.171875 6.148438 -3.613281 6.148438 -2.957031 C 6.148438 -2.304688 6.035156 -1.746094 5.8125 -1.285156 C 5.585938 -0.824219 5.269531 -0.476562 4.855469 -0.242188 C 4.441406 -0.00390625 3.957031 0.113281 3.398438 0.113281 Z M 3.398438 -0.671875 C 3.988281 -0.671875 4.441406 -0.855469 4.753906 -1.230469 C 5.066406 -1.601562 5.222656 -2.179688 5.222656 -2.957031 C 5.222656 -3.742188 5.066406 -4.320312 4.753906 -4.691406 C 4.441406 -5.0625 3.988281 -5.25 3.398438 -5.25 C 2.808594 -5.25 2.355469 -5.0625 2.039062 -4.691406 C 1.726562 -4.316406 1.566406 -3.738281 1.566406 -2.957031 C 1.566406 -2.179688 1.726562 -1.601562 2.039062 -1.230469 C 2.355469 -0.855469 2.808594 -0.671875 3.398438 -0.671875 Z M 3.398438 -0.671875"/></g></g></g><g fill-opacity="1" fill="#003b73"><g transform="translate(188.811638, 246.998569)"><g><path d="M 1.03125 0 L 1.03125 -5.921875 L 1.863281 -5.921875 L 1.863281 -4.992188 L 1.976562 -4.964844 C 2.171875 -5.3125 2.425781 -5.578125 2.730469 -5.761719 C 3.035156 -5.941406 3.410156 -6.035156 3.847656 -6.035156 C 4.5625 -6.035156 5.078125 -5.851562 5.398438 -5.488281 C 5.71875 -5.125 5.878906 -4.566406 5.878906 -3.8125 L 5.878906 0 L 5.003906 0 L 5.003906 -3.789062 C 5.003906 -4.148438 4.957031 -4.433594 4.867188 -4.652344 C 4.777344 -4.867188 4.632812 -5.027344 4.441406 -5.125 C 4.25 -5.222656 4 -5.273438 3.6875 -5.273438 C 3.15625 -5.273438 2.722656 -5.097656 2.398438 -4.742188 C 2.070312 -4.390625 1.90625 -3.824219 1.90625 -3.039062 L 1.90625 0 Z M 1.03125 0"/></g></g></g><g fill-opacity="1" fill="#003b73"><g transform="translate(195.585132, 246.998569)"><g><path d="M 4.003906 -0.941406 L 4.285156 -0.3125 C 4.144531 -0.171875 3.960938 -0.0664062 3.734375 0.00390625 C 3.507812 0.078125 3.261719 0.113281 2.996094 0.113281 C 1.863281 0.113281 1.300781 -0.460938 1.300781 -1.605469 L 1.300781 -5.207031 L 0.269531 -5.207031 L 0.269531 -5.925781 L 1.300781 -5.925781 L 1.300781 -7.179688 L 2.175781 -7.324219 L 2.175781 -5.925781 L 4.082031 -5.925781 L 4.082031 -5.207031 L 2.175781 -5.207031 L 2.175781 -1.691406 C 2.175781 -1.011719 2.46875 -0.671875 3.058594 -0.671875 C 3.382812 -0.671875 3.660156 -0.761719 3.890625 -0.941406 Z M 4.003906 -0.941406"/></g></g></g><g fill-opacity="1" fill="#003b73"><g transform="translate(200.093646, 246.998569)"><g><path d="M 1.03125 0 L 1.03125 -5.921875 L 1.863281 -5.921875 L 1.863281 -4.992188 L 1.976562 -4.964844 C 2.25 -5.640625 2.769531 -5.976562 3.53125 -5.976562 C 3.9375 -5.976562 4.238281 -5.902344 4.441406 -5.753906 L 4.214844 -5.015625 L 4.105469 -4.992188 C 3.886719 -5.105469 3.640625 -5.160156 3.375 -5.160156 C 2.90625 -5.160156 2.542969 -4.980469 2.285156 -4.628906 C 2.03125 -4.273438 1.90625 -3.699219 1.90625 -2.90625 L 1.90625 0 Z M 1.03125 0"/></g></g></g><g fill-opacity="1" fill="#003b73"><g transform="translate(204.510882, 246.998569)"><g><path d="M 3.398438 0.113281 C 2.839844 0.113281 2.355469 -0.00390625 1.941406 -0.242188 C 1.527344 -0.476562 1.207031 -0.824219 0.984375 -1.285156 C 0.761719 -1.746094 0.648438 -2.304688 0.648438 -2.957031 C 0.648438 -3.613281 0.761719 -4.171875 0.984375 -4.632812 C 1.207031 -5.09375 1.527344 -5.445312 1.941406 -5.679688 C 2.355469 -5.917969 2.839844 -6.035156 3.398438 -6.035156 C 3.957031 -6.035156 4.441406 -5.917969 4.855469 -5.679688 C 5.269531 -5.445312 5.585938 -5.09375 5.8125 -4.632812 C 6.035156 -4.171875 6.148438 -3.613281 6.148438 -2.957031 C 6.148438 -2.304688 6.035156 -1.746094 5.8125 -1.285156 C 5.585938 -0.824219 5.269531 -0.476562 4.855469 -0.242188 C 4.441406 -0.00390625 3.957031 0.113281 3.398438 0.113281 Z M 3.398438 -0.671875 C 3.988281 -0.671875 4.441406 -0.855469 4.753906 -1.230469 C 5.066406 -1.601562 5.222656 -2.179688 5.222656 -2.957031 C 5.222656 -3.742188 5.066406 -4.320312 4.753906 -4.691406 C 4.441406 -5.0625 3.988281 -5.25 3.398438 -5.25 C 2.808594 -5.25 2.355469 -5.0625 2.039062 -4.691406 C 1.726562 -4.316406 1.566406 -3.738281 1.566406 -2.957031 C 1.566406 -2.179688 1.726562 -1.601562 2.039062 -1.230469 C 2.355469 -0.855469 2.808594 -0.671875 3.398438 -0.671875 Z M 3.398438 -0.671875"/></g></g></g><g fill-opacity="1" fill="#003b73"><g transform="translate(211.305857, 246.998569)"><g><path d="M 2.355469 0.113281 C 1.9375 0.113281 1.609375 -0.0078125 1.367188 -0.246094 C 1.128906 -0.480469 1.007812 -0.835938 1.007812 -1.308594 L 1.007812 -8.300781 L 1.882812 -8.300781 L 1.882812 -1.367188 C 1.882812 -1.121094 1.933594 -0.945312 2.027344 -0.835938 C 2.121094 -0.726562 2.269531 -0.671875 2.46875 -0.671875 C 2.589844 -0.671875 2.714844 -0.691406 2.839844 -0.730469 L 2.914062 -0.707031 L 3.015625 -0.0195312 C 2.953125 0.0195312 2.859375 0.0546875 2.742188 0.078125 C 2.621094 0.101562 2.492188 0.113281 2.355469 0.113281 Z M 2.355469 0.113281"/></g></g></g><g fill-opacity="1" fill="#003b73"><g transform="translate(217.220598, 246.998569)"><g><path d="M 2.441406 0.113281 C 1.859375 0.113281 1.402344 -0.0390625 1.078125 -0.34375 C 0.75 -0.648438 0.585938 -1.082031 0.585938 -1.648438 C 0.585938 -2 0.65625 -2.296875 0.800781 -2.535156 C 0.949219 -2.777344 1.171875 -2.976562 1.476562 -3.128906 C 1.78125 -3.28125 2.179688 -3.398438 2.667969 -3.480469 C 3.097656 -3.550781 3.425781 -3.632812 3.648438 -3.71875 C 3.871094 -3.808594 4.023438 -3.910156 4.097656 -4.019531 C 4.175781 -4.132812 4.214844 -4.273438 4.214844 -4.441406 C 4.214844 -4.707031 4.121094 -4.914062 3.9375 -5.058594 C 3.753906 -5.199219 3.457031 -5.273438 3.050781 -5.273438 C 2.667969 -5.273438 2.339844 -5.199219 2.0625 -5.050781 C 1.789062 -4.902344 1.539062 -4.679688 1.308594 -4.386719 L 1.203125 -4.386719 L 0.773438 -4.992188 C 1.023438 -5.3125 1.34375 -5.566406 1.730469 -5.753906 C 2.117188 -5.941406 2.554688 -6.035156 3.050781 -6.035156 C 3.746094 -6.035156 4.261719 -5.882812 4.59375 -5.574219 C 4.925781 -5.269531 5.089844 -4.847656 5.089844 -4.304688 L 5.089844 -1.164062 C 5.089844 -0.835938 5.230469 -0.671875 5.507812 -0.671875 C 5.601562 -0.671875 5.691406 -0.6875 5.777344 -0.71875 L 5.851562 -0.699219 L 5.953125 -0.0898438 C 5.890625 -0.046875 5.804688 -0.015625 5.699219 0.0078125 C 5.59375 0.03125 5.484375 0.0429688 5.375 0.0429688 C 5.046875 0.0429688 4.800781 -0.0273438 4.636719 -0.171875 C 4.46875 -0.316406 4.363281 -0.527344 4.316406 -0.804688 L 4.203125 -0.816406 C 4.035156 -0.503906 3.808594 -0.273438 3.523438 -0.117188 C 3.234375 0.0351562 2.875 0.113281 2.441406 0.113281 Z M 2.636719 -0.585938 C 2.964844 -0.585938 3.25 -0.660156 3.492188 -0.8125 C 3.734375 -0.964844 3.917969 -1.179688 4.046875 -1.453125 C 4.175781 -1.730469 4.242188 -2.050781 4.242188 -2.410156 L 4.242188 -3.164062 L 4.140625 -3.183594 C 4.007812 -3.089844 3.847656 -3.011719 3.65625 -2.949219 C 3.464844 -2.886719 3.203125 -2.832031 2.863281 -2.78125 C 2.519531 -2.734375 2.246094 -2.664062 2.042969 -2.566406 C 1.839844 -2.46875 1.695312 -2.347656 1.609375 -2.199219 C 1.523438 -2.050781 1.480469 -1.867188 1.480469 -1.648438 C 1.480469 -1.300781 1.582031 -1.035156 1.789062 -0.855469 C 1.992188 -0.675781 2.273438 -0.585938 2.636719 -0.585938 Z M 2.636719 -0.585938"/></g></g></g><g fill-opacity="1" fill="#003b73"><g transform="translate(223.344663, 246.998569)"><g><path d="M 1.03125 0 L 1.03125 -5.921875 L 1.863281 -5.921875 L 1.863281 -4.992188 L 1.976562 -4.964844 C 2.171875 -5.3125 2.425781 -5.578125 2.730469 -5.761719 C 3.035156 -5.941406 3.410156 -6.035156 3.847656 -6.035156 C 4.5625 -6.035156 5.078125 -5.851562 5.398438 -5.488281 C 5.71875 -5.125 5.878906 -4.566406 5.878906 -3.8125 L 5.878906 0 L 5.003906 0 L 5.003906 -3.789062 C 5.003906 -4.148438 4.957031 -4.433594 4.867188 -4.652344 C 4.777344 -4.867188 4.632812 -5.027344 4.441406 -5.125 C 4.25 -5.222656 4 -5.273438 3.6875 -5.273438 C 3.15625 -5.273438 2.722656 -5.097656 2.398438 -4.742188 C 2.070312 -4.390625 1.90625 -3.824219 1.90625 -3.039062 L 1.90625 0 Z M 1.03125 0"/></g></g></g><g fill-opacity="1" fill="#003b73"><g transform="translate(230.161107, 246.998569)"><g><path d="M 3.070312 0.113281 C 2.59375 0.113281 2.175781 0 1.8125 -0.226562 C 1.449219 -0.457031 1.164062 -0.796875 0.957031 -1.257812 C 0.753906 -1.714844 0.648438 -2.28125 0.648438 -2.957031 C 0.648438 -3.632812 0.757812 -4.203125 0.972656 -4.664062 C 1.1875 -5.121094 1.484375 -5.464844 1.859375 -5.695312 C 2.238281 -5.921875 2.675781 -6.035156 3.171875 -6.035156 C 3.566406 -6.035156 3.921875 -5.960938 4.234375 -5.8125 C 4.550781 -5.664062 4.820312 -5.417969 5.046875 -5.078125 L 5.160156 -5.101562 L 5.160156 -8.300781 L 6.035156 -8.300781 L 6.035156 0 L 5.160156 0 L 5.160156 -0.863281 L 5.046875 -0.886719 C 4.851562 -0.59375 4.589844 -0.351562 4.261719 -0.167969 C 3.929688 0.0195312 3.53125 0.113281 3.070312 0.113281 Z M 3.34375 -0.671875 C 3.894531 -0.671875 4.335938 -0.859375 4.664062 -1.238281 C 4.996094 -1.613281 5.160156 -2.1875 5.160156 -2.957031 C 5.160156 -3.730469 4.996094 -4.304688 4.664062 -4.683594 C 4.335938 -5.0625 3.894531 -5.25 3.34375 -5.25 C 2.777344 -5.25 2.335938 -5.066406 2.03125 -4.699219 C 1.722656 -4.328125 1.566406 -3.75 1.566406 -2.957031 C 1.566406 -1.433594 2.160156 -0.671875 3.34375 -0.671875 Z M 3.34375 -0.671875"/></g></g></g><g fill-opacity="1" fill="#003b73"><g transform="translate(239.924187, 246.998569)"><g><path d="M 2.699219 0.113281 C 2.328125 0.113281 1.984375 0.0625 1.667969 -0.0351562 C 1.351562 -0.132812 1.082031 -0.269531 0.863281 -0.441406 C 0.644531 -0.613281 0.492188 -0.804688 0.402344 -1.019531 L 0.917969 -1.558594 L 1.03125 -1.558594 C 1.222656 -1.261719 1.457031 -1.042969 1.730469 -0.894531 C 2 -0.746094 2.324219 -0.671875 2.699219 -0.671875 C 3.136719 -0.671875 3.46875 -0.757812 3.695312 -0.925781 C 3.921875 -1.097656 4.039062 -1.332031 4.039062 -1.636719 C 4.039062 -1.871094 3.96875 -2.0625 3.832031 -2.214844 C 3.691406 -2.367188 3.46875 -2.480469 3.164062 -2.554688 L 2.164062 -2.800781 C 1.628906 -2.929688 1.242188 -3.136719 0.996094 -3.414062 C 0.75 -3.695312 0.628906 -4.039062 0.628906 -4.449219 C 0.628906 -4.773438 0.710938 -5.054688 0.875 -5.289062 C 1.039062 -5.527344 1.277344 -5.710938 1.585938 -5.839844 C 1.894531 -5.96875 2.265625 -6.035156 2.691406 -6.035156 C 3.234375 -6.035156 3.664062 -5.957031 3.976562 -5.804688 C 4.289062 -5.652344 4.53125 -5.441406 4.707031 -5.171875 L 4.214844 -4.6875 L 4.105469 -4.6875 C 3.917969 -4.90625 3.710938 -5.0625 3.488281 -5.160156 C 3.261719 -5.257812 2.996094 -5.304688 2.691406 -5.304688 C 2.300781 -5.304688 2 -5.234375 1.792969 -5.09375 C 1.585938 -4.957031 1.480469 -4.753906 1.480469 -4.488281 C 1.480469 -4.25 1.554688 -4.054688 1.703125 -3.910156 C 1.847656 -3.761719 2.105469 -3.644531 2.46875 -3.554688 L 3.453125 -3.316406 C 3.96875 -3.195312 4.339844 -2.992188 4.570312 -2.710938 C 4.796875 -2.429688 4.914062 -2.074219 4.914062 -1.648438 C 4.914062 -1.300781 4.828125 -0.996094 4.664062 -0.730469 C 4.5 -0.464844 4.253906 -0.257812 3.917969 -0.109375 C 3.585938 0.0390625 3.179688 0.113281 2.699219 0.113281 Z M 2.699219 0.113281"/></g></g></g><g fill-opacity="1" fill="#003b73"><g transform="translate(245.398811, 246.998569)"><g><path d="M 3.398438 0.113281 C 2.839844 0.113281 2.355469 -0.00390625 1.941406 -0.242188 C 1.527344 -0.476562 1.207031 -0.824219 0.984375 -1.285156 C 0.761719 -1.746094 0.648438 -2.304688 0.648438 -2.957031 C 0.648438 -3.613281 0.761719 -4.171875 0.984375 -4.632812 C 1.207031 -5.09375 1.527344 -5.445312 1.941406 -5.679688 C 2.355469 -5.917969 2.839844 -6.035156 3.398438 -6.035156 C 3.957031 -6.035156 4.441406 -5.917969 4.855469 -5.679688 C 5.269531 -5.445312 5.585938 -5.09375 5.8125 -4.632812 C 6.035156 -4.171875 6.148438 -3.613281 6.148438 -2.957031 C 6.148438 -2.304688 6.035156 -1.746094 5.8125 -1.285156 C 5.585938 -0.824219 5.269531 -0.476562 4.855469 -0.242188 C 4.441406 -0.00390625 3.957031 0.113281 3.398438 0.113281 Z M 3.398438 -0.671875 C 3.988281 -0.671875 4.441406 -0.855469 4.753906 -1.230469 C 5.066406 -1.601562 5.222656 -2.179688 5.222656 -2.957031 C 5.222656 -3.742188 5.066406 -4.320312 4.753906 -4.691406 C 4.441406 -5.0625 3.988281 -5.25 3.398438 -5.25 C 2.808594 -5.25 2.355469 -5.0625 2.039062 -4.691406 C 1.726562 -4.316406 1.566406 -3.738281 1.566406 -2.957031 C 1.566406 -2.179688 1.726562 -1.601562 2.039062 -1.230469 C 2.355469 -0.855469 2.808594 -0.671875 3.398438 -0.671875 Z M 3.398438 -0.671875"/></g></g></g><g fill-opacity="1" fill="#003b73"><g transform="translate(252.193786, 246.998569)"><g><path d="M 2.355469 0.113281 C 1.9375 0.113281 1.609375 -0.0078125 1.367188 -0.246094 C 1.128906 -0.480469 1.007812 -0.835938 1.007812 -1.308594 L 1.007812 -8.300781 L 1.882812 -8.300781 L 1.882812 -1.367188 C 1.882812 -1.121094 1.933594 -0.945312 2.027344 -0.835938 C 2.121094 -0.726562 2.269531 -0.671875 2.46875 -0.671875 C 2.589844 -0.671875 2.714844 -0.691406 2.839844 -0.730469 L 2.914062 -0.707031 L 3.015625 -0.0195312 C 2.953125 0.0195312 2.859375 0.0546875 2.742188 0.078125 C 2.621094 0.101562 2.492188 0.113281 2.355469 0.113281 Z M 2.355469 0.113281"/></g></g></g><g fill-opacity="1" fill="#003b73"><g transform="translate(255.414153, 246.998569)"><g><path d="M 2.925781 0.113281 C 2.257812 0.113281 1.757812 -0.0625 1.429688 -0.417969 C 1.101562 -0.773438 0.941406 -1.292969 0.941406 -1.976562 L 0.941406 -5.921875 L 1.816406 -5.921875 L 1.816406 -1.996094 C 1.816406 -1.097656 2.238281 -0.648438 3.082031 -0.648438 C 3.617188 -0.648438 4.042969 -0.824219 4.355469 -1.175781 C 4.664062 -1.527344 4.820312 -2.09375 4.820312 -2.882812 L 4.820312 -5.921875 L 5.695312 -5.921875 L 5.695312 0 L 4.871094 0 L 4.871094 -0.929688 L 4.757812 -0.957031 C 4.550781 -0.59375 4.308594 -0.324219 4.023438 -0.148438 C 3.738281 0.0234375 3.375 0.113281 2.925781 0.113281 Z M 2.925781 0.113281"/></g></g></g><g fill-opacity="1" fill="#003b73"><g transform="translate(262.139365, 246.998569)"><g><path d="M 4.003906 -0.941406 L 4.285156 -0.3125 C 4.144531 -0.171875 3.960938 -0.0664062 3.734375 0.00390625 C 3.507812 0.078125 3.261719 0.113281 2.996094 0.113281 C 1.863281 0.113281 1.300781 -0.460938 1.300781 -1.605469 L 1.300781 -5.207031 L 0.269531 -5.207031 L 0.269531 -5.925781 L 1.300781 -5.925781 L 1.300781 -7.179688 L 2.175781 -7.324219 L 2.175781 -5.925781 L 4.082031 -5.925781 L 4.082031 -5.207031 L 2.175781 -5.207031 L 2.175781 -1.691406 C 2.175781 -1.011719 2.46875 -0.671875 3.058594 -0.671875 C 3.382812 -0.671875 3.660156 -0.761719 3.890625 -0.941406 Z M 4.003906 -0.941406"/></g></g></g><g fill-opacity="1" fill="#003b73"><g transform="translate(266.647879, 246.998569)"><g><path d="M 1.472656 -7.066406 C 1.285156 -7.066406 1.132812 -7.125 1.015625 -7.238281 C 0.902344 -7.355469 0.84375 -7.503906 0.84375 -7.683594 C 0.84375 -7.863281 0.902344 -8.007812 1.015625 -8.125 C 1.132812 -8.242188 1.285156 -8.300781 1.472656 -8.300781 C 1.65625 -8.300781 1.808594 -8.242188 1.925781 -8.125 C 2.039062 -8.007812 2.097656 -7.863281 2.097656 -7.683594 C 2.097656 -7.503906 2.039062 -7.355469 1.925781 -7.238281 C 1.808594 -7.125 1.65625 -7.066406 1.472656 -7.066406 Z M 1.03125 0 L 1.03125 -5.921875 L 1.90625 -5.921875 L 1.90625 0 Z M 1.03125 0"/></g></g></g><g fill-opacity="1" fill="#003b73"><g transform="translate(269.583769, 246.998569)"><g><path d="M 3.398438 0.113281 C 2.839844 0.113281 2.355469 -0.00390625 1.941406 -0.242188 C 1.527344 -0.476562 1.207031 -0.824219 0.984375 -1.285156 C 0.761719 -1.746094 0.648438 -2.304688 0.648438 -2.957031 C 0.648438 -3.613281 0.761719 -4.171875 0.984375 -4.632812 C 1.207031 -5.09375 1.527344 -5.445312 1.941406 -5.679688 C 2.355469 -5.917969 2.839844 -6.035156 3.398438 -6.035156 C 3.957031 -6.035156 4.441406 -5.917969 4.855469 -5.679688 C 5.269531 -5.445312 5.585938 -5.09375 5.8125 -4.632812 C 6.035156 -4.171875 6.148438 -3.613281 6.148438 -2.957031 C 6.148438 -2.304688 6.035156 -1.746094 5.8125 -1.285156 C 5.585938 -0.824219 5.269531 -0.476562 4.855469 -0.242188 C 4.441406 -0.00390625 3.957031 0.113281 3.398438 0.113281 Z M 3.398438 -0.671875 C 3.988281 -0.671875 4.441406 -0.855469 4.753906 -1.230469 C 5.066406 -1.601562 5.222656 -2.179688 5.222656 -2.957031 C 5.222656 -3.742188 5.066406 -4.320312 4.753906 -4.691406 C 4.441406 -5.0625 3.988281 -5.25 3.398438 -5.25 C 2.808594 -5.25 2.355469 -5.0625 2.039062 -4.691406 C 1.726562 -4.316406 1.566406 -3.738281 1.566406 -2.957031 C 1.566406 -2.179688 1.726562 -1.601562 2.039062 -1.230469 C 2.355469 -0.855469 2.808594 -0.671875 3.398438 -0.671875 Z M 3.398438 -0.671875"/></g></g></g><g fill-opacity="1" fill="#003b73"><g transform="translate(276.378744, 246.998569)"><g><path d="M 1.03125 0 L 1.03125 -5.921875 L 1.863281 -5.921875 L 1.863281 -4.992188 L 1.976562 -4.964844 C 2.171875 -5.3125 2.425781 -5.578125 2.730469 -5.761719 C 3.035156 -5.941406 3.410156 -6.035156 3.847656 -6.035156 C 4.5625 -6.035156 5.078125 -5.851562 5.398438 -5.488281 C 5.71875 -5.125 5.878906 -4.566406 5.878906 -3.8125 L 5.878906 0 L 5.003906 0 L 5.003906 -3.789062 C 5.003906 -4.148438 4.957031 -4.433594 4.867188 -4.652344 C 4.777344 -4.867188 4.632812 -5.027344 4.441406 -5.125 C 4.25 -5.222656 4 -5.273438 3.6875 -5.273438 C 3.15625 -5.273438 2.722656 -5.097656 2.398438 -4.742188 C 2.070312 -4.390625 1.90625 -3.824219 1.90625 -3.039062 L 1.90625 0 Z M 1.03125 0"/></g></g></g><g fill-opacity="1" fill="#003b73"><g transform="translate(283.039503, 246.998569)"><g><path d="M 0.359375 -5.519531 C 0.683594 -5.707031 0.949219 -5.925781 1.148438 -6.164062 C 1.347656 -6.40625 1.457031 -6.660156 1.472656 -6.921875 C 1.257812 -6.921875 1.089844 -6.976562 0.964844 -7.09375 C 0.84375 -7.207031 0.785156 -7.359375 0.785156 -7.546875 C 0.785156 -7.734375 0.84375 -7.886719 0.957031 -8.007812 C 1.074219 -8.128906 1.230469 -8.1875 1.421875 -8.1875 C 1.632812 -8.1875 1.804688 -8.113281 1.933594 -7.96875 C 2.066406 -7.820312 2.132812 -7.589844 2.132812 -7.28125 C 2.132812 -6.789062 2.011719 -6.359375 1.769531 -5.992188 C 1.527344 -5.621094 1.175781 -5.285156 0.707031 -4.976562 Z M 2.425781 -5.519531 C 2.753906 -5.707031 3.015625 -5.925781 3.214844 -6.164062 C 3.417969 -6.40625 3.523438 -6.660156 3.539062 -6.921875 C 3.324219 -6.921875 3.15625 -6.976562 3.035156 -7.09375 C 2.910156 -7.207031 2.851562 -7.359375 2.851562 -7.546875 C 2.851562 -7.734375 2.910156 -7.886719 3.023438 -8.007812 C 3.140625 -8.128906 3.296875 -8.1875 3.488281 -8.1875 C 3.699219 -8.1875 3.871094 -8.113281 4.003906 -7.96875 C 4.132812 -7.820312 4.199219 -7.589844 4.199219 -7.28125 C 4.199219 -6.789062 4.078125 -6.359375 3.835938 -5.992188 C 3.59375 -5.621094 3.242188 -5.285156 2.777344 -4.976562 Z M 2.425781 -5.519531"/></g></g></g></svg>